<?xml version="1.0" encoding="utf-8"?>
<!-- Generator: Adobe Illustrator 23.0.0, SVG Export Plug-In . SVG Version: 6.00 Build 0)  -->
<svg version="1.1" id="Layer_1" xmlns="http://www.w3.org/2000/svg" xmlns:xlink="http://www.w3.org/1999/xlink" x="0px" y="0px"
	 viewBox="0 0 16 16" style="enable-background:new 0 0 16 16;" xml:space="preserve">
<style type="text/css">
	.st0{fill:#EEC71A;}
	.st1{fill:#FFFFFF;}
</style>
<g>
	<path class="st0" d="M16,14c0,1.1-0.9,2-2,2H2c-1.1,0-2-0.9-2-2V2c0-1.1,0.9-2,2-2h12c1.1,0,2,0.9,2,2V14z"/>
</g>
<path class="st1" d="M11.27,3.18c-0.31,0-0.61,0.06-0.89,0.16C9.81,2.66,8.95,2.23,8,2.23S6.19,2.66,5.62,3.34
	c-0.29-0.1-0.59-0.16-0.89-0.16C3.22,3.18,2,4.41,2,5.91c0,1.25,0.84,2.3,1.99,2.62v3.82c0,0.19,0.1,0.37,0.27,0.47
	c0.1,0.06,1.65,0.95,3.83,0.95c1.12,0,2.4-0.23,3.74-0.93c0.18-0.09,0.29-0.28,0.29-0.48V8.5C13.22,8.14,14,7.1,14,5.91
	C14,4.41,12.78,3.18,11.27,3.18z"/>
<path d="M11.27,3.18c-0.31,0-0.61,0.06-0.89,0.16C9.81,2.66,8.95,2.23,8,2.23S6.19,2.66,5.62,3.34c-0.29-0.1-0.59-0.16-0.89-0.16
	C3.22,3.18,2,4.41,2,5.91c0,1.25,0.84,2.3,1.99,2.62v3.82c0,0.19,0.1,0.37,0.27,0.47c0.1,0.06,1.65,0.95,3.83,0.95
	c1.12,0,2.4-0.23,3.74-0.93c0.18-0.09,0.29-0.28,0.29-0.48V8.5C13.22,8.14,14,7.1,14,5.91C14,4.41,12.78,3.18,11.27,3.18z
	 M12.09,7.33c-0.07-0.22-0.27-0.38-0.51-0.38c-0.3,0-0.54,0.24-0.54,0.54v4.52c-2.74,1.28-5.16,0.38-5.96,0.01V8.61
	c0.4-0.05,0.78-0.19,1.12-0.4c0.25-0.16,0.33-0.5,0.17-0.75C6.2,7.2,5.86,7.13,5.61,7.29C5.34,7.46,5.04,7.55,4.73,7.55
	c-0.9,0-1.64-0.73-1.64-1.64s0.73-1.64,1.64-1.64c0.11,0,0.23,0.01,0.34,0.04C4.95,4.64,4.88,4.98,4.88,5.35
	c0,0.3,0.24,0.54,0.54,0.54c0.3,0,0.54-0.24,0.54-0.54c0-1.12,0.91-2.03,2.03-2.03s2.03,0.91,2.03,2.03c0,0.61-0.27,1.18-0.75,1.57
	C9.05,7.11,9.02,7.46,9.21,7.69c0.11,0.13,0.26,0.2,0.42,0.2c0.12,0,0.24-0.04,0.34-0.12c0.73-0.59,1.14-1.47,1.14-2.41
	c0-0.37-0.07-0.71-0.18-1.04c0.11-0.02,0.22-0.04,0.34-0.04c0.9,0,1.64,0.73,1.64,1.64C12.91,6.51,12.58,7.04,12.09,7.33z"/>
</svg>
