<svg height='300px' width='300px'  fill="#000000" xmlns="http://www.w3.org/2000/svg" xmlns:xlink="http://www.w3.org/1999/xlink" version="1.1" x="0px" y="0px" viewBox="0 0 100 100" enable-background="new 0 0 100 100" xml:space="preserve"><path d="M54.732,44.403c0.121,0.122,0.256,0.236,0.401,0.343c0.445,0.646,1.181,1.039,1.968,1.039c0.785,0,1.521-0.394,1.967-1.039  c0.146-0.106,0.279-0.221,0.402-0.345l12.969-13.123c0.928-0.94,0.918-2.46-0.021-3.391c-0.913-0.9-2.488-0.889-3.389,0.021  l-9.533,9.647V9.308c0-1.323-1.074-2.397-2.395-2.397c-1.322,0-2.396,1.074-2.396,2.396v28.249l-9.532-9.646  c-0.898-0.911-2.478-0.924-3.389-0.021c-0.455,0.449-0.708,1.05-0.712,1.69c-0.004,0.64,0.241,1.243,0.691,1.698L54.732,44.403z"></path><path d="M93.445,25.963c-1.204-0.444-2.635,0.206-3.084,1.402L77.082,62.693c-0.564,1.505-2.544,2.877-4.154,2.877H38.981  c-2.004,0-4.146-1.717-4.583-3.67L24.375,17.134c-0.931-4.159-4.999-7.417-9.26-7.417H7.396C6.074,9.717,5,10.791,5,12.113  c0,1.322,1.074,2.396,2.396,2.396h7.719c2.004,0,4.145,1.716,4.582,3.671l10.024,44.768c0.93,4.157,4.997,7.416,9.26,7.416h33.946  c3.585,0,7.382-2.63,8.644-5.985L94.848,29.05C95.313,27.815,94.684,26.431,93.445,25.963z"></path><path d="M40.106,73.245c-5.472,0-9.924,4.45-9.924,9.924c0,5.47,4.452,9.92,9.924,9.92c5.473,0,9.924-4.45,9.924-9.92  C50.03,77.695,45.579,73.245,40.106,73.245z M40.105,88.296c-2.828,0-5.13-2.3-5.13-5.127c0-2.83,2.302-5.132,5.13-5.132  c2.829,0,5.131,2.302,5.131,5.132C45.236,85.996,42.935,88.296,40.105,88.296z"></path><path d="M69.909,73.245c-5.472,0-9.925,4.45-9.925,9.924c0,5.47,4.453,9.92,9.925,9.92s9.924-4.45,9.924-9.92  C79.833,77.695,75.381,73.245,69.909,73.245z M69.909,88.296c-2.829,0-5.132-2.3-5.132-5.127c0-2.83,2.303-5.132,5.132-5.132  s5.132,2.302,5.132,5.132C75.041,85.996,72.738,88.296,69.909,88.296z"></path></svg>