<svg height='300px' width='300px'  fill="#000000" xmlns="http://www.w3.org/2000/svg" xmlns:xlink="http://www.w3.org/1999/xlink" version="1.1" x="0px" y="0px" viewBox="0 0 100 100" enable-background="new 0 0 100 100" xml:space="preserve"><path d="M50,5C25.187,5,5,25.187,5,50c0,24.813,20.187,45,45,45c24.813,0,45-20.188,45-45C95,25.187,74.813,5,50,5z M50,90.208  C27.83,90.208,9.792,72.17,9.792,50S27.83,9.793,50,9.793S90.208,27.83,90.208,50S72.17,90.208,50,90.208z"></path><path d="M67.988,47.604H52.396V32.012c0-1.321-1.076-2.397-2.396-2.397c-1.321,0-2.396,1.076-2.396,2.397v15.592H32.012  c-1.322,0-2.396,1.075-2.396,2.396c0,1.32,1.073,2.396,2.396,2.396h15.592v15.592c0,1.322,1.075,2.396,2.396,2.396  c1.32,0,2.396-1.073,2.396-2.396V52.396h15.592c1.322,0,2.396-1.076,2.396-2.396C70.384,48.679,69.311,47.604,67.988,47.604z"></path></svg>