<svg height='300px' width='300px'  fill="#000000" xmlns="http://www.w3.org/2000/svg" xmlns:xlink="http://www.w3.org/1999/xlink" version="1.1" x="0px" y="0px" viewBox="0 0 100 100" enable-background="new 0 0 100 100" xml:space="preserve"><path d="M81.805,18.195C73.295,9.686,62,5,49.999,5C25.188,5,5.001,25.187,5.001,50C5,62.001,9.687,73.296,18.194,81.805  C26.704,90.313,37.999,95,50,95s23.296-4.688,31.805-13.195C90.314,73.297,95,62.001,94.999,50  C95,37.999,90.313,26.704,81.805,18.195z M50,90.207C27.83,90.207,9.793,72.17,9.793,50S27.829,9.793,49.998,9.793H50  c10.723,0,20.813,4.186,28.417,11.789C86.02,29.186,90.207,39.278,90.207,50C90.207,72.17,72.17,90.207,50,90.207z"></path><path d="M66.294,42.153L50,58.445L33.706,42.152c-0.904-0.906-2.484-0.906-3.389,0c-0.935,0.934-0.935,2.455,0.001,3.389  l17.318,17.32c0.631,0.63,1.47,0.977,2.363,0.977c0.894,0,1.731-0.347,2.362-0.979L69.68,45.542  c0.455-0.452,0.705-1.055,0.705-1.697c0-0.642-0.25-1.244-0.701-1.693C68.777,41.247,67.198,41.247,66.294,42.153z"></path></svg>