<svg height='300px' width='300px'  fill="#000000" xmlns="http://www.w3.org/2000/svg" xmlns:xlink="http://www.w3.org/1999/xlink" version="1.1" x="0px" y="0px" viewBox="0 0 91 91" enable-background="new 0 0 91 91" xml:space="preserve"><g><path d="M3.262,66.987c0.444,1.232,1.45,2.099,2.761,2.376c0.549,0.117,1.134,0.171,1.75,0.171c4.748,0,11.265-3.237,16.164-6.146   c1.712-1.017,3.194-1.871,4.528-2.636c2.021-1.16,3.724-2.142,5.356-3.204c-1.269,2.044-2.576,4.098-3.863,6.117   c-6.446,10.119-12.013,18.86-11.706,24.22c0.048,0.849,0.58,1.591,1.364,1.909c1.668,0.677,3.451,1.019,5.296,1.019   c12.591,0,25.727-15.827,32.037-23.434l19.684-23.362c4.675-5.545,10.597-16.399,9.619-21.479c-0.489-2.545-3.78-5.712-7.622-8.227   c1.769-1.025,4.46-2.278,7.297-2.458c1.201-0.077,2.116-1.121,2.041-2.331c-0.077-1.21-1.092-2.157-2.317-2.055   c-2.266,0.144-4.422,0.793-6.254,1.566c2.262-2.911,5.616-4.526,5.703-4.568c1.094-0.508,1.571-1.811,1.067-2.912   c-0.503-1.101-1.802-1.583-2.896-1.078C82.91,0.645,75.21,4.312,73.398,11.48c-2.089-0.901-4.055-1.462-5.547-1.462   c-0.487,0-0.95,0.05-1.372,0.15c-2.566,0.609-4.855,2.371-6.964,4.714c-2.472-2.544-6.164-5.984-10.265-6.004   c-0.014,0-0.026,0-0.039,0c-2.05,0-3.898,0.833-5.496,2.473C33.329,22.027,25.398,32.696,17.002,43.99   C13.31,48.959,9.491,54.095,5.402,59.298C4.238,60.78,2.293,64.293,3.262,66.987z M67.482,14.444   c0.051-0.012,0.17-0.033,0.369-0.033c4.342,0,13.695,6.788,14.115,8.961c0.514,2.677-3.594,11.79-8.661,17.803l-2.578,3.059   c-0.149-0.143-4.896-2.948-6.641-4.695c-0.854-0.855-2.236-0.855-3.087,0.008c-0.849,0.858-0.845,2.249,0.008,3.105   c2.1,2.103,4.931,3.913,6.896,4.933l-7.244,8.598c-0.267-0.267-4.074-2.193-4.575-2.67c-0.876-0.832-2.259-0.792-3.086,0.094   c-0.826,0.882-0.787,2.271,0.091,3.104c0.74,0.703,2.938,2.184,4.698,2.879L53.6,64.563c-1.699,2.05-4.114,4.957-6.953,7.988   c-1.316-0.696-2.289-1.223-3.182-2.265c-0.785-0.919-2.162-1.022-3.078-0.23c-0.915,0.79-1.018,2.179-0.229,3.097   c1.059,1.237,2.178,2.007,3.298,2.651c-5.701,5.549-12.477,10.617-18.543,10.617c-0.742,0-1.468-0.079-2.169-0.235   c0.524-2.578,2.485-6.4,4.948-10.587c0.14,0.346,0.334,0.669,0.647,0.914l2.337,1.839c0.398,0.313,0.872,0.465,1.343,0.465   c0.648,0,1.29-0.288,1.721-0.845c0.742-0.953,0.574-2.335-0.376-3.082l-2.337-1.837c-0.45-0.355-1-0.491-1.53-0.443   c1.346-2.19,2.764-4.419,4.138-6.576c2.05-3.219,4.152-6.521,6.083-9.757l1.254,1.167c0.42,0.391,0.953,0.583,1.483,0.583   c0.587,0,1.173-0.237,1.603-0.703c0.389-0.423,0.582-0.959,0.579-1.491c0-0.593-0.235-1.183-0.698-1.613l-1.968-1.828l2.947-5.207   c0.784-1.388,1.643-2.903,2.524-4.465c0.358,0.318,1.134,0.839,1.247,0.946c0.421,0.386,0.949,0.575,1.476,0.575   c0.59,0,1.18-0.24,1.61-0.712c0.813-0.896,0.755-2.284-0.136-3.104c-0.507-0.467-1.861-1.406-2.047-1.497   c3.497-6.179,6.896-12.147,7.666-13.377c0.193-0.311,0.409-0.651,0.63-1.004c1.96,2.103,3.737,3.4,6.402,4.727   c0.311,0.155,0.642,0.229,0.967,0.229c0.804,0,1.577-0.449,1.958-1.224c0.535-1.086,0.091-2.403-0.989-2.942   c-2.491-1.239-3.922-2.352-5.826-4.543C62.506,17.872,65.05,15.022,67.482,14.444z M8.826,62.023   c3.656-4.65,7.076-9.226,10.391-13.681c0.665,1.008,1.595,2.048,3.174,2.958c0.343,0.198,0.718,0.292,1.085,0.292   c0.757,0,1.492-0.397,1.895-1.104c0.6-1.053,0.239-2.396-0.807-2.997c-1.226-0.707-1.687-1.448-2.203-2.417   c-0.097-0.181-0.239-0.313-0.374-0.452c2.142-2.88,4.272-5.719,6.422-8.528c0.465,0.622,1.098,1.386,1.99,2.428   c0.3,0.35,0.55,0.638,0.683,0.807c0.43,0.546,1.067,0.83,1.711,0.83c0.476,0,0.953-0.153,1.355-0.474   c0.945-0.753,1.104-2.135,0.354-3.086c-0.155-0.195-0.443-0.535-0.795-0.945c-0.563-0.659-1.879-2.193-2.139-2.667   c-0.09-0.194-0.23-0.341-0.363-0.495c1.884-2.401,3.81-4.785,5.799-7.154c1.272,2.08,3.888,4.095,6.533,4.897   c0.21,0.064,0.423,0.095,0.632,0.095c0.938,0,1.806-0.613,2.089-1.564c0.348-1.161-0.307-2.387-1.46-2.737   c-2.014-0.609-3.937-2.396-4.25-3.304c-0.119-0.344-0.319-0.63-0.564-0.863c2.18-2.488,4.446-4.966,6.852-7.437   c1.002-1.029,1.832-1.154,2.375-1.154c0.006,0,0.012,0,0.017,0c2.542,0.012,5.661,3.112,7.544,5.074   c-1.107,1.553-2.174,3.206-3.209,4.864c-1.177,1.879-7.688,13.396-12.441,21.803l-0.653,1.151   c-5.77,5.943-8.433,7.478-14.169,10.772c-1.349,0.774-2.851,1.639-4.583,2.67c-6.211,3.688-11.615,5.733-14.333,5.524   C7.488,64.396,8.019,63.052,8.826,62.023z"></path></g></svg>