<svg height='300px' width='300px'  fill="#000000" xmlns="http://www.w3.org/2000/svg" xmlns:xlink="http://www.w3.org/1999/xlink" version="1.1" x="0px" y="0px" viewBox="0 0 100 100" enable-background="new 0 0 100 100" xml:space="preserve"><path d="M93.859,26.763c-1.281-1.85-3.5-2.91-6.084-2.91H26.763l-1.99-8.888c-0.951-4.244-5.102-7.567-9.45-7.567H7.432  C6.091,7.397,5,8.487,5,9.828c0,1.342,1.091,2.431,2.432,2.431h7.891c2.057,0,4.255,1.761,4.704,3.769L30.275,61.8  c0.951,4.244,5.102,7.567,9.451,7.567h34.708c3.659,0,7.532-2.684,8.818-6.107l11.191-29.777  C95.354,31.063,95.139,28.613,93.859,26.763z M89.891,31.772L78.699,61.551c-0.579,1.547-2.612,2.954-4.266,2.954H39.726  c-2.057,0-4.255-1.761-4.704-3.769L28.339,30.89l-0.023-0.103l-0.463-2.071h59.922c0.981,0,1.724,0.29,2.086,0.815  C90.227,30.058,90.236,30.854,89.891,31.772z"></path><path d="M40.875,72.352c-5.585,0-10.127,4.543-10.127,10.127s4.543,10.125,10.127,10.125s10.128-4.541,10.128-10.125  S46.46,72.352,40.875,72.352z M40.875,87.742c-2.902,0-5.264-2.361-5.264-5.264s2.362-5.266,5.264-5.266  c2.903,0,5.265,2.363,5.265,5.266C46.14,85.38,43.778,87.742,40.875,87.742z"></path><path d="M71.348,72.352c-5.584,0-10.127,4.543-10.127,10.127s4.543,10.125,10.127,10.125c5.586,0,10.129-4.541,10.129-10.125  S76.934,72.352,71.348,72.352z M71.348,87.742c-2.904,0-5.265-2.361-5.265-5.264s2.36-5.266,5.265-5.266  c2.903,0,5.266,2.363,5.266,5.266C76.613,85.38,74.252,87.742,71.348,87.742z"></path></svg>