<svg height='300px' width='300px'  fill="#000000" xmlns="http://www.w3.org/2000/svg" xmlns:xlink="http://www.w3.org/1999/xlink" version="1.1" x="0px" y="0px" viewBox="0 0 91 91" enable-background="new 0 0 91 91" xml:space="preserve"><g><path d="M46.016,88.313c0.741-1.49-0.195-2.688-0.195-2.688s-4.408-3.114-6.566-4.685l-0.026-0.056   c-0.916-1.88-1.252-2.6-1.316-5.541c0.994,0.075,2.016,0.131,3.091,0.131c0,0,0,0,0.002,0c0.743,0,1.532-0.023,2.351-0.075   c1.856,3.619,3.8,5.895,6.24,8.206c-0.482,2.327-0.365,4.601-0.359,4.708c0.065,1.171,1.035,2.075,2.192,2.075   c0.042,0,0.083,0,0.123-0.002c1.212-0.067,2.141-1.105,2.073-2.317c-0.002-0.016-0.054-1.202,0.111-2.565   c2.089,0.59,4.795,1.057,4.919,1.057c1.049,0,1.978-0.755,2.162-1.824c0.206-1.196-0.597-2.335-1.793-2.54   c-1.926-0.334-5.062-1.069-6.342-1.721c-1.834-1.729-3.281-3.355-4.645-5.675c9.738-1.903,21.814-8.613,26.83-29.18   c0.019-0.069,0.032-0.141,0.042-0.21c0.006-0.034,0.238-1.646,0.682-3.773c0.564,1.028,1.256,1.88,2.11,2.339   c0.531,0.286,1.098,0.429,1.67,0.429c0.528,0,1.063-0.121,1.578-0.37c0.898-0.431,2.409-1.564,2.435-4.301   c0.03-2.908-1.847-7.185-4.356-8.772c0.205-0.579,0.403-1.203,0.592-1.854l4.757,3.514c0.393,0.291,0.851,0.43,1.304,0.43   c0.676,0,1.339-0.308,1.771-0.891c0.722-0.976,0.515-2.353-0.461-3.075l-5.055-3.734c0.342,0.012,4.619-0.067,5.303-0.067   c1.213,0,2.196-0.986,2.196-2.198s-0.983-2.198-2.196-2.198c-0.729,0-5.447,0.137-6.807-0.091   c-0.207-1.369-0.622-2.705-1.357-3.931c-0.171-0.282-0.368-0.542-0.564-0.803c1.699-1.6,2.427-4.25,1.874-6.259   c-0.451-1.644-2.25-4.513-5.155-5.221c-0.662-0.161-1.68-0.267-2.849,0.105c-0.517-1.009-1.246-1.918-2.134-2.617   c-1.561-1.229-3.415-1.676-5.229-1.254c-2.646,0.616-4.402,2.061-5.255,4.315c-1.842-1.021-4.009-1.614-6.094-1.222   c-2.482,0.465-4.406,2.256-5.415,5.04c-1.885,5.201,2.245,7.542,4.714,8.939c0.647,0.368,1.264,0.724,1.789,1.089   c-0.316,0.524-0.61,1.079-0.871,1.679c-2.973,6.861-10.523,16.52-18,16.52c-1.695,0-3.381-0.495-5.009-1.471   c-10.479-6.291-11.593-14.834-11.634-15.183c-0.07-0.638-0.412-1.218-0.944-1.582c-0.529-0.362-1.193-0.477-1.813-0.31   c-2.719,0.731-7.298,3.297-7.238,8.073c-1.522,0.869-3.615,2.514-4.221,5.188c-0.505,2.232,0.153,4.577,1.959,6.994   c-2.023,1.495-4.561,4.026-4.382,7.223c0.177,3.162,2.791,5.749,7.976,7.888c1.117,3.571,5.327,14.515,15.993,18.781   c1.467,0.589,3.874,1.399,6.938,1.979c0.04,4.073,0.497,5.418,1.578,7.664l-2.351,5.184c-0.5,1.106-0.01,2.408,1.095,2.909   c0.294,0.136,2.081,0.024,2.91-1.093l1.666-3.675c2.218,1.588,4.881,3.466,4.881,3.466S45.272,89.806,46.016,88.313z    M52.388,10.448c0.707-1.959,1.749-2.152,2.091-2.218c1.686-0.304,3.984,0.97,5.227,2.395c0.61,0.7,1.596,0.938,2.455,0.603   c0.864-0.336,1.423-1.179,1.398-2.105C63.485,6.205,64.29,5.499,66.012,5.1c0.503-0.119,1.012,0.03,1.514,0.423   c0.775,0.612,1.324,1.699,1.332,2.645c0.006,0.902,0.564,1.708,1.405,2.033c0.839,0.32,1.793,0.102,2.406-0.561   c0.875-0.948,1.364-0.821,1.521-0.787c0.867,0.212,1.785,1.499,1.956,2.114c0.188,0.686-0.361,1.91-0.937,2.079   c-0.083,0.024-0.156,0.062-0.234,0.095c-1.638-0.827-3.611-1.357-5.925-1.57c-0.065-0.004-0.133-0.008-0.198-0.008   c-0.342,0-6.561,0.071-11.235,4.052c-0.789-0.592-1.646-1.081-2.484-1.554C52.058,12.32,51.877,11.855,52.388,10.448z    M57.919,22.406c2.617-6.038,9.917-6.421,10.845-6.445c3.27,0.32,5.47,1.383,6.541,3.166c2.371,3.951-0.599,10.999-1.574,13.312   l-0.177,0.423c-1.845,4.456-2.838,10.861-2.978,11.815c-0.177,0.72-0.365,1.422-0.56,2.104c-0.895-1.782-2.104-3.721-3.346-4.254   c-1.54-0.668-3.064,0.036-4.392,1.016c-0.837-2.765-1.409-3.973-2.352-4.609c-1.171-0.797-2.391-0.706-3.412-0.404   c0.137-2.379,0.027-4.485-1.467-5.543c-0.682-0.481-2.054-0.507-3.642-0.312C54.607,28.883,56.883,24.793,57.919,22.406z    M11.325,41.331c0.626-0.32,1.059-0.918,1.17-1.614c0.109-0.693-0.119-1.397-0.614-1.896c-1.934-1.939-2.846-3.694-2.57-4.945   c0.33-1.5,2.317-2.53,3.041-2.798c1.06-0.374,1.664-1.486,1.405-2.58c-0.421-1.769,0.644-2.949,1.767-3.675   c1.185,3.743,4.422,10.45,13.094,15.651c2.319,1.391,4.766,2.099,7.268,2.099c3.112,0,6-1.079,8.611-2.721   c1.038-0.406,5.422-1.526,7.66-1.872c0.01,0.888-0.084,2.101-0.132,2.732c-0.067,0.873-0.121,1.563-0.091,2.095   c0.06,1.169,1.025,2.081,2.194,2.081c0.01,0,0.023,0,0.035,0c1.029-0.016,1.928-0.423,2.719-0.783   c0.159-0.071,0.356-0.163,0.539-0.238c0.388,0.978,0.88,2.717,1.119,3.563c0.21,0.74,0.389,1.368,0.517,1.718   c0.238,0.666,0.778,1.175,1.454,1.371c0.678,0.197,1.407,0.058,1.964-0.376c0.265-0.204,0.601-0.504,0.978-0.844   c0.358-0.326,1.065-0.963,1.61-1.35c0.741,1.143,1.853,3.458,2.224,4.553c0.142,0.409,0.397,0.737,0.712,0.99   C61.162,68.458,48.54,71.077,41.005,71.077c-0.002,0-0.002,0-0.002,0c-5.958,0-10.577-1.49-12.799-2.381   c-7.433-2.973-11.191-10.197-12.753-14.156c0.227,0.002,2.894,0.008,2.894,0.008c0.002,0,0.004,0,0.006,0   c1.212,0,2.194-0.979,2.198-2.192c0.004-1.212-0.978-2.2-2.192-2.204c0,0-6.064-0.246-6.169-0.246   c-4.696-1.948-5.167-3.567-5.193-4.039C6.904,44.344,9.528,42.259,11.325,41.331z"></path><path d="M33.034,59.695c0.145,1.991,0.735,4.277,3.951,5.512c0.95,0.365,1.979,0.54,3.019,0.54c2.161,0,4.361-0.761,5.958-2.166   c0.91-0.801,0.998-2.19,0.195-3.103c-0.801-0.908-2.19-1.002-3.103-0.195c-1.129,0.992-3.1,1.355-4.494,0.819   c-1.065-0.409-1.121-0.532-1.185-2.669c-0.01-0.314-0.02-0.639-0.036-0.974c-0.058-1.123-0.952-2.023-2.077-2.085   c-0.31-0.017-0.668-0.028-1.052-0.038c-2.784-0.079-4.336-0.346-4.613-0.789c-0.012-0.03-0.034-0.175,0.026-0.453   c0.328-1.574,3.031-2.319,4.732-2.143c1.154,0.129,2.244-0.707,2.407-1.884c0.121-0.879-0.292-1.707-0.998-2.158   c2.306-0.115,6.946,0.083,10.889,0.417c1.19,0.086,2.272-0.797,2.373-2.008c0.104-1.208-0.795-2.271-2.005-2.375   c-13.082-1.099-14.302-0.034-14.954,0.539c-1.117,0.98-1.684,2.272-1.596,3.572c-2.387,0.762-4.577,2.391-5.151,5.142   c-0.414,1.978,0.223,3.308,0.829,4.076C27.719,59.26,30.605,59.594,33.034,59.695z"></path><path d="M69.281,25.069c1.216,0,2.199-0.984,2.199-2.196c0-0.129-0.012-0.254-0.031-0.378c-0.094-1.131-1.04-2.017-2.192-2.017   c-0.582,0-1.162,0.274-1.576,0.688c-0.165,0.165-0.304,0.36-0.411,0.572c-0.163,0.306-0.255,0.656-0.255,1.026   c0,0.437,0.128,0.847,0.351,1.19C67.772,24.608,68.494,25.069,69.281,25.069z"></path></g></svg>