<svg height='300px' width='300px'  fill="#000000" xmlns="http://www.w3.org/2000/svg" xmlns:xlink="http://www.w3.org/1999/xlink" version="1.1" x="0px" y="0px" viewBox="0 0 91 91" enable-background="new 0 0 91 91" xml:space="preserve"><g><path d="M32.06,81.577c0.222,3.941,3.469,7.09,7.468,7.09s7.245-3.148,7.468-7.09c0.884,2.537,3.273,4.374,6.107,4.374   c3.58,0,6.493-2.911,6.493-6.491c0-2.896-3.379-6.972-4.829-8.59c-0.848-0.943-2.479-0.943-3.326,0   c-1.404,1.563-4.574,5.413-4.788,8.284c-1.112-3.249-4.333-7.027-5.46-8.284c-0.424-0.472-1.029-0.741-1.665-0.741   c-0.635,0-1.239,0.27-1.663,0.741c-1.127,1.257-4.35,5.035-5.461,8.284c-0.214-2.871-3.384-6.722-4.788-8.284   c-0.847-0.943-2.48-0.943-3.326,0c-1.451,1.618-4.829,5.694-4.829,8.59c0,3.58,2.912,6.491,6.492,6.491   C28.787,85.951,31.177,84.114,32.06,81.577z M53.103,75.897c1.144,1.538,1.992,2.99,2.022,3.563c0,1.114-0.906,2.023-2.022,2.023   c-1.114,0-2.024-0.909-2.024-2.016C51.113,78.89,51.962,77.436,53.103,75.897z M39.527,75.853c1.742,2.25,3.043,4.464,3.043,5.304   c0,1.678-1.364,3.044-3.043,3.044c-1.677,0-3.043-1.366-3.043-3.044C36.484,80.316,37.786,78.103,39.527,75.853z M23.929,79.468   c0.033-0.578,0.881-2.032,2.023-3.57c1.142,1.538,1.99,2.99,2.024,3.563c0,1.114-0.909,2.023-2.024,2.023   C24.836,81.483,23.929,80.574,23.929,79.468z"></path><path d="M9.704,44.199v12.739c0,6.391,5.201,11.59,11.594,11.59h33.693c6.391,0,11.589-5.199,11.589-11.59V44.199h3.381   c3.295,0,5.978-2.682,5.978-5.979v-5.615c0-1.232-1.001-2.232-2.232-2.232h-9.358H10.393l48.628-13.094   c0.574-0.153,1.062-0.529,1.358-1.042c0.295-0.515,0.373-1.124,0.22-1.697l-0.635-2.351c-0.42-1.569-1.728-2.731-3.323-2.954   c-0.466-0.064-1.013-0.16-1.641-0.265C52.257,8.51,48.11,7.815,42.946,7.815c-1.58,0-3.15,0.091-4.712,0.227l-0.939-3.494   c-0.892-3.291-5.931-3.19-10.351-2.002c-4.421,1.194-8.831,3.639-7.945,6.933l0.932,3.461c-6.607,3.112-11.188,6.895-14.019,9.24   c-0.493,0.41-0.925,0.766-1.297,1.059c-1.263,1-1.808,2.655-1.39,4.221c0,0,0.788,2.74,0.891,2.914H2.582   c-1.234,0-2.234,1-2.234,2.232v5.615c0,3.297,2.682,5.979,5.979,5.979H9.704z M23.484,8.949c0.618-0.532,2.221-1.441,4.621-2.087   c2.403-0.646,4.244-0.663,5.046-0.515l0.608,2.269c-1.65,0.279-3.292,0.609-4.9,1.043c-1.681,0.453-3.265,0.972-4.771,1.534   L23.484,8.949z M8.765,25.62c3.7-3.067,10.587-8.777,21.254-11.647c4.167-1.121,8.515-1.688,12.928-1.688   c4.793,0,8.719,0.658,11.315,1.095c0.468,0.076,0.892,0.149,1.278,0.21L7.748,26.455C8.053,26.208,8.393,25.927,8.765,25.62z    M71.47,38.22c0,0.832-0.677,1.512-1.509,1.512H66.58V34.84h4.89V38.22z M62.113,56.938c0,3.928-3.196,7.122-7.122,7.122H21.298   c-3.928,0-7.124-3.194-7.124-7.122V34.84h47.939V56.938z M4.815,38.22v-3.38h4.889v4.892H6.326   C5.494,39.732,4.815,39.052,4.815,38.22z"></path><path d="M77.458,22.454c2.101-1.489,3.49-3.752,3.929-6.25c0.245-0.041,0.489-0.081,0.741-0.081c2.379,0,4.317,1.938,4.317,4.316   c0,2.382-1.938,4.318-4.317,4.318c-1.234,0-2.234,1-2.234,2.234c0,1.232,1,2.233,2.234,2.233c4.844,0,8.784-3.94,8.784-8.786   c0-4.843-3.94-8.783-8.784-8.783c-0.335,0-0.666,0.02-0.993,0.056c-1.211-3.994-4.92-6.91-9.303-6.91   c-4.514,0-8.503,3.192-9.484,7.593c-0.271,1.204,0.488,2.399,1.692,2.667c1.205,0.277,2.4-0.489,2.668-1.695   c0.531-2.374,2.685-4.098,5.124-4.098c2.896,0,5.253,2.358,5.253,5.253c0,1.702-0.827,3.304-2.214,4.288   c-1.009,0.716-1.245,2.11-0.529,3.116c0.434,0.614,1.123,0.941,1.822,0.941C76.612,22.866,77.063,22.735,77.458,22.454z"></path><path d="M69.891,16.903c-0.734-0.994-2.132-1.204-3.127-0.473l-9.357,6.89c-0.993,0.731-1.205,2.129-0.474,3.123   c0.438,0.597,1.115,0.91,1.8,0.91c0.46,0,0.927-0.141,1.324-0.434l9.358-6.892C70.408,19.298,70.621,17.898,69.891,16.903z"></path><path d="M66.087,29.227c0.177,0,0.355-0.021,0.535-0.067l7.616-1.871c1.199-0.295,1.932-1.505,1.635-2.704   c-0.293-1.198-1.502-1.938-2.701-1.634l-7.615,1.871c-1.199,0.294-1.932,1.505-1.637,2.703   C64.17,28.546,65.083,29.227,66.087,29.227z"></path></g></svg>