<svg height='300px' width='300px'  fill="#000000" xmlns="http://www.w3.org/2000/svg" xmlns:xlink="http://www.w3.org/1999/xlink" version="1.1" x="0px" y="0px" viewBox="0 0 100 100" enable-background="new 0 0 100 100" xml:space="preserve"><path d="M89.791,21.087c-0.241-2.76-1.537-5.256-3.648-7.028l-7.92-6.645c-2.091-1.756-4.805-2.621-7.555-2.374  c-2.76,0.241-5.256,1.537-7.027,3.648L15.56,65.997c-0.982,1.171-1.88,3.114-2.135,4.622L10.26,89.307  c-0.316,1.87,0.207,3.557,1.436,4.625C12.5,94.631,13.532,95,14.679,95c0.587,0,1.191-0.098,1.796-0.289l18.581-5.884  c1.483-0.472,3.286-1.679,4.286-2.87l48.076-57.314C89.189,26.532,90.033,23.849,89.791,21.087z M15.022,90.141  c-0.016,0.004-0.031,0.01-0.046,0.014c0.004-0.014,0.007-0.031,0.01-0.051l3.126-18.457l5.218-0.594l0.058-0.004  c0.068,0,0.11,0.018,0.125,0.029c0.024,0.023,0.048,0.091,0.046,0.188l-0.074,3.629c-0.031,1.513,0.578,2.905,1.671,3.822  c1.078,0.904,2.587,1.271,4.054,0.981l3.641-0.712l0.099,0.023c0.017,0.014,0.053,0.068,0.059,0.18l0.316,5.154L15.022,90.141z   M37.877,80.246L37.794,78.9c-0.09-1.473-0.79-2.814-1.917-3.686c-0.852-0.656-1.928-1.02-3.032-1.02  c-0.339,0-0.681,0.033-1.016,0.101L28.276,75c0-0.002,0-0.004,0-0.004l0.075-3.63c0.03-1.474-0.556-2.868-1.608-3.826  c-1.045-0.953-2.469-1.418-3.96-1.249l-1.341,0.152l37.18-44.319l16.438,13.793L37.877,80.246z M83.747,25.562l-5.606,6.683  L61.703,18.452l5.607-6.681c0.949-1.13,2.291-1.825,3.774-1.955c1.494-0.127,2.923,0.318,4.058,1.27l7.92,6.646  c1.131,0.949,1.824,2.29,1.955,3.774C85.146,22.992,84.697,24.432,83.747,25.562z"></path></svg>