<svg height='300px' width='300px'  fill="#000000" xmlns="http://www.w3.org/2000/svg" xmlns:xlink="http://www.w3.org/1999/xlink" version="1.1" x="0px" y="0px" viewBox="0 0 91 91" enable-background="new 0 0 91 91" xml:space="preserve"><g><path d="M3.144,73.419c-2.501,2.628-3.186,6.144-1.704,9.333C2.959,86.023,6.248,88,9.867,88c0.725,0,1.459-0.081,2.196-0.242   c0.933-0.205,1.774-0.428,2.582-0.643c2.03-0.534,3.633-0.958,6.039-0.958l2.38-0.006c2.563-0.013,5.222-0.026,7.759,0.097   c7.026,0.333,14.294,0.683,21.365-0.963c2.761-0.642,5.322-1.657,7.789-2.784c2.301,1.008,6.346,1.503,10.688,1.503   c6.351,0,13.313-1.052,16.295-3.083c0.812-0.551,3.301-3.406,3.722-7.269c0.247-2.246-0.139-5.651-3.38-9.086   c-0.981-1.04-0.973-1.602-0.957-3.104c0.011-0.946,0.024-2.123-0.264-3.568l-0.308-1.585c-0.599-3.137-1.167-6.1-2.624-9.244   c-0.602-1.302-1.096-5.849-1.455-9.172c-0.331-3.03-0.613-5.647-1.02-7.05c-0.018-0.061-0.061-0.101-0.083-0.158   c0.354-2.36,0.227-4.79-0.407-7.226c-2.065-7.938-8.112-10.66-14.129-12.767c-2.078-0.729-3.98-1.697-5.997-2.725   c-3.21-1.635-6.53-3.322-10.526-3.92c-7.755-1.146-12.376-0.912-19.268,3.559c-2.523,1.639-5.25,3.262-8.094,4.055   c-2.745,0.763-8.399,2.677-9.761,3.141c-2.196,0.164-3.999,1.225-5.226,3.084c-2.557,3.874-1.899,10.386-0.65,13.566   c1.811,4.616,2.249,6.661,0.055,11.479C1.73,53.602-0.706,62.94,3.144,73.419z M10.857,20.314c1.04-1.917,9.55-3.59,12.495-4.41   c3.415-0.949,6.493-2.773,9.309-4.6c5.696-3.696,9.047-3.968,16.222-2.897c3.286,0.488,6.147,1.946,9.177,3.488   c2.055,1.047,4.182,2.129,6.539,2.955c6.274,2.198,9.937,4.398,11.322,9.719c0.996,3.837,0.407,7.502-1.755,10.891   C70.115,41.81,61.42,45.908,54.597,47.154c-13.694,2.503-32.845,1.681-41.736-8.853c-0.121-0.144-0.256-0.267-0.402-0.371   c0.095-2.554-0.6-4.961-1.825-8.086C9.711,27.495,9.544,22.737,10.857,20.314z M10.599,44.757c0.267-0.584,0.501-1.143,0.707-1.68   c10.561,10.155,29.401,11.09,44.083,8.411c6.954-1.27,16.705-5.399,21.948-12.88c0.388,3.557,0.722,6.312,1.171,8.264   c-3.349,1.752-8.988,4.815-9.272,4.969c-1.067,0.582-1.464,1.92-0.883,2.99c0.4,0.733,1.157,1.15,1.938,1.15   c0.355,0,0.717-0.087,1.052-0.269c0.267-0.146,5.326-2.896,8.655-4.647c0.356,1.064,0.629,2.146,0.874,3.261   c-0.064,0.032-0.136,0.036-0.195,0.077c-1.855,1.188-8.195,3.724-8.744,3.95c-1.125,0.461-1.664,1.749-1.202,2.873   c0.352,0.854,1.173,1.369,2.041,1.369c0.276,0,0.562-0.053,0.834-0.166c0,0,6.164-2.49,8.164-3.583   c0.18,0.949,0.178,1.74,0.168,2.566c-0.021,1.8-0.042,3.843,2.156,6.176c1.548,1.64,2.301,3.367,2.24,5.135   c-0.079,2.302-1.502,4.167-1.946,4.616c-3.315,2.146-12.367,2.555-18.091,2.069c2.528-1.268,4.985-2.438,7.57-3.282   c1.157-0.377,1.787-1.622,1.409-2.779c-0.377-1.154-1.616-1.79-2.779-1.409c-3.403,1.113-6.584,2.724-9.662,4.28   c-3.886,1.966-7.554,3.822-11.647,4.773c-6.47,1.503-13.427,1.173-20.155,0.854c-2.652-0.128-10.349-0.095-10.349-0.095   c-2.979,0-5.012,0.537-7.161,1.105c-0.757,0.201-1.541,0.406-2.408,0.599c-2.792,0.621-4.903-0.893-5.68-2.561   c-0.837-1.806-0.234-3.67,1.655-5.113c0.797-0.608,1.082-1.676,0.694-2.603c-0.327-0.781-0.6-1.553-0.85-2.319   c0.579,0.051,4.547,0.002,5.07,0.002c1.217,0,2.202-0.985,2.202-2.202c0-1.218-0.985-2.202-2.202-2.202   c-0.569,0-4.876,0.131-6.142-0.255c-0.186-1.423-0.236-2.835-0.182-4.248c1.418,0.488,5.294,0.664,5.67,0.634   c1.213-0.095,2.119-1.157,2.022-2.37c-0.095-1.214-1.132-2.125-2.369-2.022c-2.174,0.182-4.11-0.337-4.661-0.771   c-0.039-0.033-0.086-0.037-0.127-0.065C7,53.359,8.555,49.246,10.599,44.757z"></path><path d="M27.001,37.999c4.82,2.86,10.888,4.394,17.276,4.394c0.715,0,1.433-0.018,2.153-0.058c6.21-0.331,14.013-1.343,19.248-6.27   c2.757-2.594,4.179-5.75,4-8.89c-0.163-2.878-1.639-5.439-4.271-7.407c-0.263-0.194-0.553-0.313-0.854-0.378   c-0.051-0.807-0.528-1.528-1.273-1.867c-0.702-0.319-1.51-0.243-2.138,0.18c-0.002,0-0.002,0-0.004,0.002   c-1.191-1.062-2.771-1.684-4.447-1.684c-0.024,0-0.048,0-0.07,0c-1.169,0.012-2.268,0.331-3.204,0.902   c-0.51-0.39-1.117-0.683-1.808-0.862c-1.668-0.438-3.605-0.172-5.222,0.582c-0.422-0.515-0.937-0.913-1.542-1.183   c-2.089-0.941-4.433,0.018-6.358,1.11c-0.842-0.662-1.68-0.843-2.333-0.847c-1.092,0.004-2.12,0.508-2.929,1.207   c-0.775-0.703-1.724-1.09-2.654-1.175c-1.855-0.169-3.557,0.761-4.582,2.39c-1.371-0.042-2.741,0.382-3.849,1.264   c-0.497,0.396-0.864,0.869-1.167,1.369c0-0.002,0-0.002,0-0.002c-0.876-0.844-2.269-0.821-3.117,0.055   c-1.552,1.61-2.23,3.526-1.96,5.542C16.395,30.06,20.028,33.863,27.001,37.999z M20.669,24.341   c0.466,1.005,1.387,1.789,2.665,2.188c0.22,0.069,0.442,0.102,0.658,0.102c0.938,0,1.809-0.604,2.102-1.547   c0.291-0.93-0.065-1.907-0.815-2.444c0.303-0.112,0.698-0.151,1.15,0.045c0.602,0.262,1.288,0.242,1.873-0.053   c0.585-0.296,1.009-0.837,1.155-1.475c0.182-0.795,0.559-1.026,0.714-1.015c0.117,0.012,0.353,0.328,0.382,1.039   c0.04,0.967,0.708,1.796,1.646,2.041c0.939,0.236,1.926-0.157,2.433-0.983c0.674-1.1,1.12-1.639,1.393-1.903   c0.041,0.056,0.081,0.125,0.129,0.202c0.303,0.512,0.799,0.88,1.379,1.019c0.575,0.141,1.187,0.041,1.691-0.278   c2.057-1.298,3.342-1.938,3.752-1.841c0.057,0.059,0.226,0.359,0.339,1.043c0.147,0.904,0.839,1.623,1.736,1.804   c0.904,0.188,1.816-0.209,2.303-0.985c0.356-0.567,2.047-1.264,3.141-0.975c0.301,0.077,0.303,0.111,0.315,0.364   c0.05,1.019,0.793,1.871,1.793,2.059c0.994,0.188,2.003-0.337,2.419-1.268c0.404-0.904,1.205-1.048,1.645-1.052   c0.673,0.002,1.589,0.299,2.009,1.189c0.348,0.73,1.103,1.158,1.91,1.203c0.169,0.006,0.342-0.004,0.515-0.036   c0,0.002,0,0.004,0.002,0.004c0.235,1.195,1.374,1.978,2.587,1.734c0.102-0.02,0.194-0.055,0.29-0.087   c0.788,0.906,1.24,1.905,1.301,2.989c0.101,1.791-0.854,3.769-2.62,5.432c-4.194,3.948-11.003,4.788-16.462,5.081   c-6.318,0.331-12.329-0.987-16.947-3.728c-7.424-4.402-8.817-7.167-8.986-8.425C20.215,25.419,20.248,24.941,20.669,24.341z"></path><path d="M35.982,31.178c0.296,0,0.597-0.061,0.886-0.188c0.995-0.438,1.506-1.524,1.251-2.543c0.979,0.206,2.305,0.815,2.618,1.3   c0.654,1.025,2.02,1.326,3.042,0.67c1.025-0.654,1.326-2.016,0.672-3.042c-1.557-2.433-6.477-4.344-9.196-2.887   c-1.433,0.765-2.523,2.58-1.29,5.374C34.329,30.688,35.134,31.178,35.982,31.178z"></path><path d="M51.322,32.799c0.122,0.022,0.245,0.033,0.368,0.033c1.054,0,1.986-0.761,2.169-1.837c0.062-0.368,0.377-0.662,0.653-0.813   c0.323-0.178,0.573-0.169,0.613-0.16c0.029,0.028,0.119,0.178,0.168,0.515c0.178,1.203,1.281,2.029,2.501,1.859   c1.203-0.178,2.036-1.298,1.859-2.503c-0.38-2.573-2.167-4.252-4.557-4.279c-0.018,0-0.036,0-0.054,0   c-2.666,0-5.087,2.033-5.529,4.648C49.313,31.461,50.12,32.597,51.322,32.799z"></path></g></svg>