<svg height='300px' width='300px'  fill="#000000" xmlns="http://www.w3.org/2000/svg" xmlns:xlink="http://www.w3.org/1999/xlink" version="1.1" x="0px" y="0px" viewBox="0 0 91 91" enable-background="new 0 0 91 91" xml:space="preserve"><g><path fill="#000000" d="M74.812,61.444c-0.479-0.124-0.986-0.032-1.394,0.251L58.438,72.111c-0.62,0.365-3.607,2.275-3.741,5.276   c-0.087,1.965,1.036,3.764,3.338,5.347c2.229,1.535,4.641,2.314,7.165,2.314c0.001,0,0.001,0,0.001,0   c2.975,0,5.954-1.131,8.391-3.184c5.141-4.332,6.052-11.997,2.32-19.529C75.692,61.893,75.291,61.567,74.812,61.444z M71.4,79.266   c-1.823,1.537-4.025,2.383-6.199,2.383c-1.824,0-3.586-0.577-5.238-1.715c-0.715-0.491-1.906-1.455-1.869-2.389   c0.041-1.017,1.432-2.137,2.093-2.518c0.047-0.025,0.092-0.055,0.136-0.085l13.34-9.275C75.729,71.108,74.912,76.307,71.4,79.266z"></path><path fill="#000000" d="M68.775,56.76c1.401-10.434-6.844-17.157-7.871-17.949L50.027,28.438c-0.734-0.775-2.743-3.309-3.22-5.692   c-0.184-0.92-1.077-1.517-2-1.333c-0.921,0.184-1.519,1.08-1.334,2c0.764,3.821,3.949,7.22,4.146,7.424l11.008,10.499   c0.05,0.048,0.104,0.093,0.159,0.135c0.079,0.058,7.817,5.916,6.62,14.835c-0.848,6.294-6.279,8.74-11.218,9.647   c0.262-0.377,0.521-0.756,0.742-1.165c4.361-8.072-1.084-19.134-1.318-19.601c-0.42-0.84-1.44-1.177-2.279-0.759   c-0.839,0.42-1.18,1.44-0.761,2.279c0.049,0.1,4.888,9.964,1.362,16.473c-1.732,3.199-5.324,5.147-10.677,5.791   c-0.953-0.03-8.395-0.52-11.367-8.303c-0.335-0.878-1.32-1.314-2.194-0.981c-0.877,0.335-1.316,1.317-0.981,2.194   c0.581,1.521,1.3,2.817,2.101,3.93c-2.676,0.277-5.373-0.339-7.683-1.8c-2.836-1.796-4.614-4.563-5.008-7.794   c-1.084-8.903,6.551-14.807,6.625-14.863c0.053-0.04,0.104-0.083,0.152-0.129l10.985-10.48c0.192-0.177,1.933-1.882,3.822-7.086   c0.32-0.882-0.135-1.857-1.018-2.178c-0.881-0.32-1.857,0.136-2.178,1.018c-1.585,4.365-2.943,5.757-2.953,5.767L20.62,38.704   c-0.998,0.779-9.142,7.485-7.87,17.925c0.512,4.201,2.904,7.939,6.564,10.257c2.502,1.583,5.355,2.394,8.247,2.394   c1.34,0,2.686-0.183,4.01-0.535c4.388,3.568,9.468,3.631,9.771,3.631c0.065,0,0.131-0.004,0.196-0.012   c3.344-0.389,6.146-1.242,8.401-2.541C61.011,69.385,67.7,64.753,68.775,56.76z"></path><path fill="#000000" d="M32.955,37.283c-0.427,0.547-4.197,5.442-5.105,8.721c-0.25,0.905,0.28,1.842,1.186,2.093   c0.151,0.042,0.304,0.062,0.454,0.062c0.745,0,1.429-0.493,1.638-1.247c0.616-2.228,3.464-6.197,4.51-7.538   c0.577-0.741,0.444-1.809-0.296-2.386C34.6,36.409,33.533,36.542,32.955,37.283z"></path><path fill="#000000" d="M41.1,19.363c0.938,0,1.7-0.761,1.7-1.7V9.038c0-0.939-0.762-1.7-1.7-1.7s-1.7,0.761-1.7,1.7v8.625   C39.399,18.602,40.161,19.363,41.1,19.363z"></path><path fill="#000000" d="M45.237,19.137c0.267,0.153,0.558,0.226,0.844,0.226c0.59,0,1.162-0.307,1.477-0.854l1.933-3.369   c0.467-0.814,0.186-1.854-0.629-2.321c-0.816-0.467-1.854-0.185-2.32,0.628l-1.933,3.369C44.142,17.631,44.423,18.67,45.237,19.137   z"></path><path fill="#000000" d="M34.956,18.909c0.327,0.303,0.742,0.454,1.156,0.454c0.456,0,0.911-0.183,1.246-0.544   c0.639-0.688,0.599-1.764-0.09-2.403l-3.632-3.369c-0.687-0.636-1.763-0.598-2.402,0.09c-0.639,0.688-0.599,1.764,0.09,2.403   L34.956,18.909z"></path></g></svg>