<svg height='300px' width='300px'  fill="#000000" xmlns="http://www.w3.org/2000/svg" xmlns:xlink="http://www.w3.org/1999/xlink" version="1.1" x="0px" y="0px" viewBox="0 0 91 91" enable-background="new 0 0 91 91" xml:space="preserve"><g><path d="M81.43,63.608c-3.65,0-7.99,1.414-11.898,3.881c-7.01,4.423-10.807,10.931-9.465,15.674   c-2.143,0.917-5.172,1.522-7.438,1.782c-1.26,0.144-2.166,1.283-2.021,2.546c0.133,1.173,1.127,2.039,2.279,2.039   c0.088,0,0.178-0.006,0.266-0.017c1.508-0.172,6.305-0.846,9.705-2.59c1.441,0.938,3.313,1.438,5.492,1.438   c3.654,0,7.99-1.413,11.9-3.879c3.561-2.244,6.453-5.137,8.15-8.148c1.945-3.455,2.148-6.733,0.574-9.232   C87.553,64.85,84.873,63.608,81.43,63.608z M84.393,74.077c-1.309,2.324-3.711,4.698-6.594,6.517   c-3.197,2.015-6.641,3.171-9.449,3.169c-1.047,0-2.912-0.176-3.648-1.347c-1.373-2.175,1.451-7.358,7.283-11.037   c3.193-2.015,6.637-3.171,9.445-3.171c1.047,0,2.914,0.175,3.654,1.35C85.705,70.544,85.455,72.192,84.393,74.077z"></path><path d="M7.496,26.78c2.259,7.727,1.979,20.576,1.977,20.706c-0.002,0.053,0.02,0.102,0.021,0.155   c-2.942,4.2-5.614,7.153-5.656,7.198c-0.854,0.938-0.79,2.393,0.149,3.248c0.44,0.402,0.996,0.602,1.55,0.602   c0.624,0,1.245-0.251,1.699-0.749c0.233-0.257,5.066-5.587,9.104-12.41c3.465-2.791,12.605-8.711,30.911-12.136   c0.443-0.083,0.85-0.293,1.172-0.606c0.9-0.865,1.822-2.517,1.461-4.318c-0.354-1.771-1.758-3.148-4.168-4.088   c-0.178-0.07-0.364-0.117-0.556-0.14c-0.061-0.008-1.546-0.187-3.856-0.187c-2.763,0-6.898,0.266-11.273,1.468   c0.822-1.254,1.615-2.564,2.344-3.953c3.659-6.972,5.307-14.18,4.411-19.284c-0.125-0.702-0.565-1.307-1.198-1.639   c-0.63-0.332-1.382-0.35-2.027-0.053c-4.71,2.163-9.705,7.615-13.36,14.587c-1.199,2.284-2.158,4.588-2.906,6.842   C14.18,12.95,7.676,7.38,7.558,7.283C7.26,7.033,6.902,6.863,6.52,6.79C3.301,6.168,2.045,7.202,1.475,8.1   c-1.166,1.849-0.14,3.995,1.561,7.548C4.345,18.383,6.135,22.126,7.496,26.78z M44.316,28.779c0.311,0.134,0.536,0.258,0.698,0.361   c-12.906,2.564-21.429,6.363-26.693,9.485c5.736-8.499,16.344-9.969,22.981-9.969C42.756,28.656,43.829,28.734,44.316,28.779z    M24.271,17.318c2.304-4.392,5.217-8.141,8.086-10.516c-0.323,3.711-1.753,8.239-4.058,12.631   c-2.307,4.396-5.222,8.148-8.089,10.522C20.535,26.243,21.966,21.714,24.271,17.318z M13.748,36.873   c-0.296-3.803-0.842-7.979-1.837-11.384c-1.465-5.011-3.349-8.948-4.725-11.824c-0.089-0.185-0.18-0.373-0.269-0.561   C10.399,16.993,16.283,25.546,13.748,36.873z"></path><path d="M75.086,5.852c-0.848,1.212-1.49,2.507-1.945,3.802c-2.313-1.913-4.998-3.016-7.389-3.016c-1.846,0-3.43,0.676-4.459,1.899   c-1.303,1.543-1.578,3.772-0.754,6.115c0.689,1.958,2.096,3.904,3.963,5.479c1.66,1.4,3.52,2.365,5.324,2.814   c-1.742,2.215-4.799,4.67-7.115,5.439c-1.205,0.401-1.857,1.701-1.457,2.907c0.32,0.965,1.219,1.576,2.182,1.576   c0.24,0,0.484-0.038,0.727-0.118c2.766-0.919,6.754-3.75,9.27-6.954c0.764,1.316,1.809,2.577,3.092,3.66   c2.338,1.974,5.076,3.106,7.504,3.106c1.846,0,3.432-0.676,4.465-1.902c2.494-2.959,1.113-7.941-3.213-11.589   c-0.572-0.481-1.166-0.91-1.775-1.287c1.273-0.932,2.477-2.14,3.5-3.603c3.447-4.932,3.533-10.629,0.193-12.966   c-0.918-0.641-2.033-0.979-3.23-0.979C80.91,0.236,77.508,2.388,75.086,5.852z M64.877,13.126   c-0.289-0.832-0.246-1.415-0.066-1.624c0.137-0.166,0.49-0.264,0.941-0.264c1.035,0,2.773,0.531,4.541,2.023   c1.23,1.038,2.174,2.309,2.59,3.489c0.279,0.799,0.246,1.358,0.086,1.586c-0.008,0.013-0.02,0.027-0.029,0.042   c-0.145,0.16-0.49,0.258-0.934,0.258c-1.037-0.002-2.773-0.532-4.539-2.021C66.236,15.578,65.293,14.306,64.877,13.126z    M84.975,27.697c-0.139,0.167-0.494,0.266-0.947,0.266c-1.035,0-2.771-0.532-4.541-2.023c-1.23-1.038-2.174-2.309-2.59-3.489   c-0.279-0.8-0.246-1.358-0.086-1.587c0.01-0.014,0.021-0.028,0.031-0.043c0.146-0.159,0.488-0.256,0.93-0.256   c1.035,0,2.773,0.532,4.543,2.023C84.801,24.684,85.459,27.121,84.975,27.697z M83.967,4.835c0.379,0,0.541,0.113,0.594,0.15   c0.771,0.538,0.854,3.44-1.326,6.559c-1.678,2.397-3.84,3.651-5.111,3.651c-0.379,0-0.543-0.114-0.598-0.152   c-0.375-0.263-0.561-1.019-0.486-1.973c0.111-1.418,0.773-3.089,1.818-4.583C80.533,6.089,82.697,4.835,83.967,4.835z"></path><path d="M38.443,61.334c0.375-0.115,0.716-0.289,0.984-0.562c0.433-0.244,0.86-0.484,1.282-0.719   c1.173,1.645,2.607,2.796,4.159,3.635c0.89,1.41,2.401,3.965,2.442,5.937c0.025,1.251,1.049,2.25,2.295,2.25   c0.018,0,0.035,0,0.051,0c1.27-0.027,2.277-1.076,2.252-2.348c-0.023-1.173-0.311-2.349-0.705-3.465   c1.561,0.498,3.025,1.022,4.258,1.817c0.387,0.25,0.818,0.37,1.246,0.37c0.754,0,1.494-0.373,1.934-1.053   c0.688-1.068,0.383-2.491-0.684-3.18c-0.703-0.452-1.432-0.813-2.17-1.145c0.199,0.007,0.42,0.003,0.605,0.017   c1.252,0.084,2.359-0.887,2.438-2.154c0.078-1.267-0.885-2.359-2.15-2.438c-2.324-0.147-5.361,0.068-7.799,0.245   c-1.195,0.087-2.408,0.171-3.189,0.185c-0.319-0.263-0.626-0.544-0.901-0.869c4.459-2.32,8.073-3.955,10.25-4.892   c0.355,0.357,0.713,0.767,1.084,1.227c0.59,0.733,1.26,1.565,2.105,2.271c0.961,0.804,2.061,1.385,3.029,1.9   c0.662,0.351,1.285,0.682,1.748,1.017c0.408,0.298,0.883,0.44,1.354,0.44c0.709,0,1.41-0.325,1.859-0.943   c0.748-1.028,0.521-2.464-0.504-3.213c-0.727-0.53-1.527-0.954-2.303-1.367c-0.404-0.213-0.793-0.422-1.16-0.633   c3.127,0.514,6.334,1.619,7.293,2.888c0.451,0.597,1.141,0.91,1.836,0.91c0.484,0,0.973-0.151,1.385-0.465   c1.014-0.766,1.213-2.209,0.447-3.221c-1.73-2.29-5.369-3.64-8.742-4.354c2.248-0.762,4.375-1.438,6.309-2.021   c3.299,0.326,8.143,2.229,10.4,4.125c0.432,0.361,0.957,0.538,1.479,0.538c0.658,0,1.307-0.279,1.764-0.82   c0.816-0.973,0.689-2.424-0.283-3.24c-1.271-1.068-3.043-2.083-4.977-2.94c0.879-0.221,1.396-0.342,1.42-0.348   c1.236-0.285,2.008-1.522,1.721-2.759s-1.533-2.011-2.758-1.722c-0.105,0.024-0.773,0.181-1.848,0.454   c1.076-1.472,1.949-2.975,2.225-4.237c0.27-1.241-0.518-2.466-1.76-2.737c-1.246-0.266-2.465,0.518-2.736,1.759   c-0.34,1.558-3.834,5.631-5.998,7.524c-1.162,0.352-2.395,0.736-3.684,1.154c1.145-1.442,2.219-2.914,3.078-4.428   c0.625-1.105,0.238-2.509-0.869-3.135c-1.104-0.625-2.508-0.235-3.133,0.869c-0.926,1.633-2.221,3.304-3.592,4.959   c-0.051-0.719-0.109-1.429-0.172-2.092c-0.049-0.533-0.096-0.998-0.115-1.358c-0.068-1.266-1.176-2.256-2.424-2.167   c-1.27,0.069-2.238,1.156-2.168,2.423c0.023,0.407,0.07,0.931,0.127,1.529c0.131,1.412,0.527,5.65-0.123,6.701   c-0.01,0.005-0.016,0.014-0.023,0.021c-0.248,0.094-0.492,0.185-0.74,0.282c-3.541,1.383-8.359,3.57-13.799,6.455   c1.271-2.092,3.081-4.157,4.877-6.183c1.516-1.71,2.947-3.325,4.047-4.961c0.709-1.054,0.428-2.483-0.625-3.191   c-1.051-0.703-2.482-0.429-3.191,0.624c-0.686,1.019-1.59,2.104-2.583,3.242c-0.259-0.975-0.677-1.849-1.299-2.496   c-0.88-0.913-2.346-0.946-3.26-0.066c-0.915,0.882-0.948,2.329-0.067,3.244c0.548,0.714,0.441,3.878-0.159,4.704   c-0.141,0.194-0.215,0.409-0.287,0.626c-1.778,2.408-3.186,5.018-3.598,7.873c-2.188,1.274-4.43,2.643-6.698,4.105   c0.351-1.547,0.925-3.185,1.705-4.879c0.225-0.28,0.385-0.61,0.461-0.968c0.199-0.4,0.404-0.799,0.625-1.204   c0.535-0.973,1.356-1.96,2.224-3.006c1.22-1.475,2.484-2.999,3.219-4.796c0.479-1.174-0.085-2.516-1.261-2.997   c-1.167-0.475-2.515,0.083-2.998,1.261c-0.376,0.921-1.098,1.877-1.91,2.876c-0.05-1.243-0.195-2.482-0.592-3.675   c-0.401-1.204-1.704-1.859-2.91-1.453c-1.204,0.402-1.854,1.705-1.453,2.91c0.455,1.358,0.404,3.137,0.35,5.018   c-0.04,1.347-0.068,2.729,0.075,4.089c-1.665,3.602-2.533,6.999-2.56,10.125c0,0.025,0.006,0.05,0.006,0.075   c-1.181,0.824-2.358,1.672-3.535,2.545c1.22-2.887,2.15-6.021,1.646-9.016c-0.211-1.253-1.399-2.086-2.65-1.885   c-1.253,0.212-2.096,1.397-1.885,2.649c0.311,1.85-0.364,4.12-1.292,6.342c-0.446-1.669-1.063-3.237-1.919-4.5   c-0.714-1.052-2.146-1.324-3.194-0.609c-1.05,0.715-1.322,2.146-0.609,3.194c1.491,2.194,2.121,6.553,2.035,10.097   c-2.454,2.113-4.844,4.322-7.106,6.637c-0.889,0.908-0.873,2.363,0.037,3.252c0.447,0.437,1.026,0.655,1.606,0.655   c0.598,0,1.195-0.231,1.644-0.692c1.377-1.409,2.793-2.768,4.23-4.086c0.807,0.882,1.788,1.665,2.878,2.321   c0.236,0.537,0.471,1.072,0.69,1.623c0.863,2.151,1.757,4.377,3.516,6.11c0.449,0.441,1.031,0.662,1.614,0.662   c0.595,0,1.188-0.229,1.638-0.684c0.891-0.905,0.881-2.36-0.022-3.253c-0.547-0.541-0.993-1.245-1.393-2.042   c1.083,0.25,2.434,0.47,3.85,0.47c1.615,0,3.301-0.287,4.727-1.149c1.087-0.657,1.436-2.069,0.779-3.156   c-0.658-1.089-2.072-1.437-3.158-0.779c-1.079,0.65-3.361,0.642-5.806-0.024c-0.001,0-0.003-0.001-0.006-0.001   c1.458-0.249,2.711-0.331,3.763-0.232c1.266,0.124,2.386-0.813,2.503-2.078c0.117-1.266-0.813-2.386-2.077-2.504   c-3.349-0.304-7.103,0.637-9.76,1.433c3.194-2.689,6.459-5.161,9.682-7.415c0.537,1.032,1.112,2.188,1.681,3.335   c0.985,1.986,2.003,4.039,2.853,5.499c0.428,0.731,1.198,1.14,1.988,1.14c0.394,0,0.793-0.101,1.159-0.314   c1.096-0.641,1.467-2.048,0.826-3.146c-0.585-1.003-1.292-2.386-2.015-3.833c1.3,0.486,2.713,0.9,4.304,1.193   c0.666,0.12,1.417,0.203,2.197,0.282c1.473,0.153,3.304,0.344,4.033,0.948c0.431,0.358,0.952,0.53,1.468,0.53   c0.662,0,1.316-0.28,1.771-0.827c0.813-0.979,0.678-2.428-0.299-3.239c-1.805-1.501-8.803-2.317-9.034-2.366   c1.199-0.373,2.335-0.604,3.212-0.579c1.27-0.003,2.329-0.963,2.366-2.232c0.036-1.271-0.964-2.328-2.233-2.364   c-3.042-0.063-6.771,1.326-9.503,2.768l0,0C33.652,64.162,36.107,62.675,38.443,61.334z"></path></g></svg>