<svg height='300px' width='300px'  fill="#000000" xmlns="http://www.w3.org/2000/svg" xmlns:xlink="http://www.w3.org/1999/xlink" version="1.1" x="0px" y="0px" viewBox="0 0 91 91" enable-background="new 0 0 91 91" xml:space="preserve"><g><path d="M59.565,19.745c-1.273,0-2.526,0.233-3.718,0.645c-2.383-2.811-5.932-4.604-9.896-4.604s-7.514,1.793-9.895,4.605   c-1.191-0.414-2.444-0.646-3.717-0.646c-6.253,0-11.342,5.084-11.342,11.339c0,5.185,3.504,9.559,8.263,10.906v15.89   c0,0.803,0.424,1.544,1.116,1.951c0.403,0.237,6.857,3.938,15.935,3.938c4.652,0,9.997-0.973,15.566-3.884   c0.745-0.391,1.214-1.162,1.214-2.006V41.859c4.566-1.502,7.815-5.832,7.815-10.775C70.907,24.829,65.818,19.745,59.565,19.745z    M62.95,36.983c-0.294-0.905-1.119-1.568-2.12-1.568c-1.251,0-2.264,1.015-2.264,2.264v18.796   c-11.401,5.343-21.48,1.578-24.78,0.025V42.322c1.654-0.209,3.24-0.772,4.65-1.672c1.054-0.673,1.363-2.071,0.69-3.125   c-0.671-1.054-2.072-1.361-3.126-0.69c-1.091,0.696-2.356,1.064-3.662,1.064c-3.758,0-6.814-3.056-6.814-6.814   c0-3.758,3.056-6.814,6.814-6.814c0.473,0,0.941,0.062,1.4,0.158c-0.481,1.357-0.757,2.808-0.757,4.329   c0,1.249,1.013,2.262,2.262,2.262c1.251,0,2.264-1.013,2.264-2.262c0-4.657,3.787-8.445,8.443-8.445   c4.656,0,8.445,3.789,8.445,8.445c0,2.544-1.13,4.927-3.099,6.536c-0.969,0.792-1.111,2.219-0.319,3.185   c0.446,0.549,1.097,0.831,1.754,0.831c0.502,0,1.009-0.168,1.431-0.512c3.025-2.473,4.759-6.132,4.759-10.04   c0-1.521-0.276-2.972-0.757-4.329c0.458-0.096,0.927-0.158,1.4-0.158c3.758,0,6.815,3.056,6.815,6.814   C66.381,33.573,65.006,35.794,62.95,36.983z"></path><path d="M75.728,0h-65.71c-1.25,0-2.264,1.013-2.264,2.264v79.149c0,5.271,4.286,9.556,9.557,9.556H76.73   c1.248,0,2.262-1.014,2.262-2.263c0-1.25-1.014-2.264-2.262-2.264H17.311c-2.774,0-5.031-2.256-5.031-5.029   c0-2.768,2.257-5.022,5.031-5.022H81.76c1.25,0,2.264-1.014,2.264-2.265V9.751c0.166-1.013,0.51-4.405-1.601-6.999   C81.399,1.496,79.407,0,75.728,0z M79.543,9.092c-0.031,0.151-0.045,0.305-0.045,0.458v62.313H17.311   c-1.844,0-3.568,0.524-5.031,1.431V4.526h63.448c1.519,0,2.587,0.36,3.173,1.072C79.776,6.657,79.659,8.491,79.543,9.092z"></path><path d="M82.314,81.319c0-1.249-1.016-2.264-2.264-2.264H17.802c-1.251,0-2.264,1.015-2.264,2.264c0,1.248,1.013,2.264,2.264,2.264   h62.249C81.299,83.583,82.314,82.567,82.314,81.319z"></path></g></svg>