<svg height='300px' width='300px'  fill="#000000" xmlns="http://www.w3.org/2000/svg" xmlns:xlink="http://www.w3.org/1999/xlink" version="1.1" x="0px" y="0px" viewBox="0 0 91 91" enable-background="new 0 0 91 91" xml:space="preserve"><g><path fill="#000000" d="M56.19,22.974c-0.044-0.018-4.37-1.793-4.37-5.794c0-0.939-0.762-1.7-1.701-1.7   c-0.938,0-1.699,0.761-1.699,1.7c0,6.277,6.242,8.845,6.518,8.956c9.513,3.737,15.904,12.711,15.904,22.332   c0,13.058-11.49,24.089-25.09,24.089S20.664,61.524,20.664,48.467c0-9.719,6.477-18.727,16.116-22.417   c0.035-0.014,0.07-0.029,0.104-0.044c0.391-0.181,9.566-4.513,9.566-12.657c0-0.939-0.762-1.7-1.701-1.7   c-0.938,0-1.699,0.761-1.699,1.7c0,5.731-6.952,9.258-7.551,9.55c-10.911,4.206-18.236,14.471-18.236,25.567   c0,12.525,9.219,23.414,21.33,26.568l-2.307,2.307c-0.664,0.664-0.664,1.74,0,2.404c0.332,0.332,0.767,0.498,1.201,0.498   c0.436,0,0.871-0.166,1.203-0.498l3.895-3.895c0.021-0.022,0.037-0.048,0.059-0.071c0.466,0.052,0.936,0.091,1.406,0.119v4.887   c0,0.938,0.762,1.7,1.701,1.7c0.938,0,1.699-0.762,1.699-1.7v-4.887c0.473-0.028,0.941-0.067,1.408-0.119   c0.021,0.023,0.036,0.049,0.059,0.071l3.895,3.895c0.332,0.332,0.767,0.498,1.201,0.498c0.436,0,0.871-0.166,1.203-0.498   c0.664-0.664,0.664-1.74,0-2.404l-2.307-2.307c12.111-3.154,21.332-14.043,21.332-26.568C74.242,37.46,66.983,27.214,56.19,22.974z   "></path><path fill="#000000" d="M43.865,26.561c0,1.305-1.881,1.713-1.933,1.724c-10.097,1.848-17.712,10.524-17.712,20.182   c0,11.321,9.21,20.531,20.529,20.531c0.939,0,1.701-0.762,1.701-1.7s-0.762-1.7-1.701-1.7c-9.445,0-17.129-7.685-17.129-17.131   c0-8.042,6.416-15.28,14.939-16.84c1.628-0.314,4.705-1.777,4.705-5.065c0-0.939-0.762-1.7-1.7-1.7S43.865,25.622,43.865,26.561z"></path><path fill="#000000" d="M44.75,34.417c-7.746,0-14.05,6.303-14.05,14.05c0,7.748,6.304,14.052,14.05,14.052   c0.939,0,1.701-0.762,1.701-1.7s-0.762-1.7-1.701-1.7c-5.872,0-10.649-4.778-10.649-10.651c0-5.873,4.777-10.65,10.649-10.65   c0.939,0,1.701-0.761,1.701-1.7S45.689,34.417,44.75,34.417z"></path><path fill="#000000" d="M44.75,44.143c0.939,0,1.701-0.762,1.701-1.701s-0.762-1.7-1.701-1.7c-4.26,0-7.725,3.465-7.725,7.725   c0,4.261,3.465,7.727,7.725,7.727c0.939,0,1.701-0.762,1.701-1.7s-0.762-1.7-1.701-1.7c-2.385,0-4.324-1.94-4.324-4.326   C40.426,46.082,42.365,44.143,44.75,44.143z"></path><path fill="#000000" d="M49.906,68.69c0.332,0.332,0.768,0.498,1.203,0.498c0.435,0,0.869-0.166,1.201-0.498   c11.15-11.15,11.15-29.294,0-40.446c-0.664-0.664-1.74-0.664-2.404,0c-0.663,0.664-0.664,1.74,0,2.404   c9.825,9.826,9.825,25.813,0,35.638C49.242,66.95,49.242,68.026,49.906,68.69z"></path></g></svg>