<svg height='300px' width='300px'  fill="#000000" xmlns="http://www.w3.org/2000/svg" xmlns:xlink="http://www.w3.org/1999/xlink" version="1.1" x="0px" y="0px" viewBox="0 0 91 91" enable-background="new 0 0 91 91" xml:space="preserve"><g><path d="M6.842,52.021c6.141-0.619,12.736-2.855,17.552-4.49c0.415-0.141,0.814-0.275,1.193-0.402   c0.76,2.01,1.951,4.557,3.859,6.416c0.678,0.66,1.714,0.617,1.794,0.607c15.286-1.629,35.906-5.475,38.502-20.004   c0.125-0.699-0.088-1.418-0.572-1.937c-0.486-0.521-1.195-0.781-1.894-0.707l-13.369,1.426v-8.574c0-1.247-1.014-2.258-2.26-2.258   h-6.785c-1.246,0-2.257,1.011-2.257,2.258v9.78l-12.256,1.308l16.35-20.978c0.623-0.809,1.534-1.328,2.558-1.459   c1.048-0.131,2.062,0.151,2.877,0.785l7.878,6.158c3.113,2.4,6.419,1.675,8.165-0.017c1.708-1.648,1.931-3.722,1.911-5.88   c-0.196-2.488,0.696-4.825,2.513-6.583c2.885-2.794,7.461-3.048,10.644-0.592c3.18,2.452,4.095,6.942,2.131,10.442   c-1.233,2.202-3.269,3.659-5.888,4.139c-1.94,0.494-3.896,1.238-5.053,3.301c-1.187,2.123-1.05,5.498,2.068,7.9l7.894,6.011   c0.805,0.615,1.32,1.503,1.453,2.5c0.133,1.021-0.146,2.043-0.789,2.876L53.98,84.355c-0.638,0.828-1.538,1.361-2.537,1.506   c-0.999,0.137-1.974-0.123-2.772-0.74l-30.1-23.207c-0.938-0.764-3.467-3.387-2.837-5.346c0.382-1.188-0.272-2.461-1.46-2.842   c-1.194-0.381-2.461,0.271-2.843,1.461c-1.682,5.229,3.682,9.742,4.337,10.271l30.143,23.24c1.458,1.127,3.202,1.717,5.001,1.717   c0.388,0,0.778-0.025,1.166-0.082c2.172-0.311,4.119-1.453,5.481-3.219l31.08-40.309c1.382-1.792,1.982-4.002,1.689-6.225   c-0.29-2.198-1.424-4.151-3.194-5.504l-7.887-6.004c-1.377-1.063-0.925-2.004-0.87-2.104c0.147-0.261,0.368-0.658,2.071-1.099   c3.758-0.678,6.989-2.989,8.867-6.339c3.054-5.44,1.628-12.419-3.313-16.232C81.057-0.513,73.944-0.117,69.458,4.22   c-2.762,2.674-4.176,6.387-3.882,10.025c0.013,1.908-0.318,2.227-0.535,2.437c-0.086,0.08-0.893,0.75-2.26-0.304l-7.869-6.149   c-1.773-1.381-3.982-1.984-6.223-1.704c-2.228,0.282-4.205,1.414-5.562,3.173L24.102,36.11L5.394,38.106   c-1.604,0.171-3.042,0.956-4.055,2.208c-1.012,1.254-1.474,2.827-1.304,4.429l0.205,1.921C0.59,49.938,3.552,52.373,6.842,52.021z    M47.122,26.616h2.266v6.797l-2.266,0.241V26.616z M4.856,43.154c0.253-0.314,0.614-0.511,1.016-0.553l58.421-6.233   c-3.38,6.762-14.046,11.086-32.401,13.166c-1.233-1.566-2.005-3.76-2.543-5.289l-0.257-0.719c-0.333-0.913-1.196-1.485-2.121-1.485   c-0.22,0-0.445,0.033-0.666,0.102c-0.936,0.288-2.076,0.672-3.363,1.112c-4.611,1.562-10.925,3.705-16.716,4.281   c-0.77,0-1.412-0.582-1.494-1.352l-0.204-1.918C4.485,43.862,4.603,43.468,4.856,43.154z"></path><path d="M79.426,14.942c0.436-0.436,0.67-1.005,0.67-1.608c0-0.584-0.234-1.171-0.67-1.59c-0.837-0.854-2.343-0.835-3.179,0   c-0.438,0.419-0.67,1.005-0.67,1.59c0,0.619,0.232,1.172,0.67,1.589c0.419,0.437,0.987,0.67,1.588,0.67   C78.439,15.594,79.007,15.361,79.426,14.942z"></path><path d="M56.845,59.781c0-1.246-1.012-2.258-2.26-2.258H50.82c-1.247,0-2.258,1.012-2.258,2.258c0,1.248,1.011,2.26,2.258,2.26   h3.765C55.833,62.041,56.845,61.029,56.845,59.781z"></path><path d="M49.974,51.945h-3.765c-1.249,0-2.26,1.01-2.26,2.26c0,1.246,1.011,2.256,2.26,2.256h3.765c1.247,0,2.258-1.01,2.258-2.256   C52.231,52.955,51.221,51.945,49.974,51.945z"></path><path d="M40.185,65.084c0,1.246,1.011,2.256,2.257,2.256h3.768c1.246,0,2.257-1.01,2.257-2.256c0-1.25-1.011-2.26-2.257-2.26   h-3.768C41.196,62.824,40.185,63.834,40.185,65.084z"></path><path d="M46.209,68.881c-1.249,0-2.26,1.012-2.26,2.258c0,1.248,1.011,2.26,2.26,2.26h3.765c1.247,0,2.258-1.012,2.258-2.26   c0-1.246-1.011-2.258-2.258-2.258H46.209z"></path></g></svg>