<svg height='300px' width='300px'  fill="#000000" xmlns="http://www.w3.org/2000/svg" xmlns:xlink="http://www.w3.org/1999/xlink" version="1.1" x="0px" y="0px" viewBox="0 0 91 91" enable-background="new 0 0 91 91" xml:space="preserve"><g><path d="M59.741,26.557c-1.263,0-2.507,0.232-3.691,0.643c-2.364-2.793-5.889-4.574-9.827-4.574c-3.937,0-7.462,1.78-9.828,4.574   c-1.183-0.409-2.427-0.643-3.691-0.643c-6.21,0-11.262,5.052-11.262,11.262c0,5.149,3.478,9.494,8.207,10.832v12.45   c0,0.798,0.42,1.533,1.107,1.938c0.4,0.233,6.81,3.911,15.826,3.911c4.62,0,9.929-0.965,15.46-3.856   c0.739-0.389,1.205-1.154,1.205-1.992V48.521c4.534-1.492,7.762-5.793,7.762-10.703C71.008,31.609,65.953,26.557,59.741,26.557z    M63.105,43.678c-0.293-0.896-1.112-1.555-2.105-1.555c-1.242,0-2.249,1.006-2.249,2.246v15.337   c-11.322,5.306-21.332,1.566-24.609,0.024V48.979c1.643-0.208,3.22-0.767,4.618-1.661c1.047-0.667,1.354-2.057,0.686-3.104   c-0.667-1.045-2.057-1.35-3.104-0.685c-1.084,0.691-2.34,1.057-3.639,1.057c-3.732,0-6.768-3.035-6.768-6.768   c0-3.73,3.035-6.767,6.768-6.767c0.471,0,0.935,0.061,1.39,0.156c-0.478,1.348-0.752,2.792-0.752,4.3   c0,1.24,1.006,2.249,2.249,2.249c1.24,0,2.246-1.008,2.246-2.249c0-4.623,3.763-8.388,8.387-8.388c4.623,0,8.386,3.765,8.386,8.388   c0,2.527-1.122,4.893-3.078,6.493c-0.961,0.785-1.103,2.202-0.316,3.163c0.443,0.543,1.09,0.823,1.741,0.823   c0.499,0,1.003-0.165,1.422-0.506c3.005-2.456,4.728-6.09,4.728-9.973c0-1.508-0.275-2.952-0.754-4.297   c0.455-0.098,0.921-0.159,1.391-0.159c3.732,0,6.771,3.037,6.771,6.767C66.513,40.291,65.146,42.497,63.105,43.678z"></path><path d="M11.389,90.965h60.008c3.921,0,6.973-1.226,9.068-3.644c3.294-3.803,2.876-9.218,2.755-10.3V12.979   c0-1.242-1.007-2.249-2.249-2.249l-44.051-0.002L70.82,4.713c1.222-0.215,2.037-1.384,1.819-2.606   c-0.216-1.226-1.396-2.04-2.606-1.819L10.995,10.762c-1.122,0.2-1.913,1.208-1.85,2.338c-0.004,0.043-0.004,0.083-0.004,0.124   v75.493C9.141,89.959,10.147,90.965,11.389,90.965z M13.635,15.225h65.09V77.16c0,0.105,0.006,0.213,0.022,0.318   c0.004,0.044,0.549,4.324-1.682,6.899c-1.203,1.387-3.109,2.092-5.669,2.092H13.635V15.225z"></path><path d="M62.602,74.253H29.843c-1.24,0-2.247,1.007-2.247,2.248c0,1.24,1.006,2.247,2.247,2.247h32.759   c1.242,0,2.248-1.007,2.248-2.247C64.85,75.26,63.844,74.253,62.602,74.253z"></path></g></svg>