<svg height='300px' width='300px'  fill="#000000" xmlns="http://www.w3.org/2000/svg" xmlns:xlink="http://www.w3.org/1999/xlink" version="1.1" x="0px" y="0px" viewBox="0 0 64 64" enable-background="new 0 0 64 64" xml:space="preserve"><g><path d="M37.635,41.737c-0.169,0-0.34-0.043-0.496-0.133l-12.47-7.151c-0.231-0.132-0.4-0.352-0.469-0.608   c-0.069-0.257-0.032-0.531,0.102-0.762l3.219-5.538c0.276-0.474,0.887-0.638,1.361-0.364l2.634,1.51L42.934,5.119   c1.13-1.949,3.17-3.118,5.359-3.118c1.072,0,2.131,0.282,3.063,0.817c1.417,0.812,2.436,2.126,2.868,3.702   c0.421,1.59,0.199,3.236-0.619,4.646L38.729,32.828l2.622,1.504c0.231,0.132,0.4,0.352,0.469,0.608   c0.069,0.257,0.032,0.531-0.102,0.762L38.5,41.24C38.314,41.559,37.979,41.737,37.635,41.737z M26.536,33.219l10.734,6.156   l2.214-3.809l-2.69-1.543c-0.242-0.139-0.416-0.372-0.478-0.645c-0.063-0.272-0.008-0.559,0.15-0.789l15.45-22.493   c0.51-0.883,0.658-1.991,0.377-3.057c-0.289-1.053-0.977-1.939-1.933-2.486c-0.63-0.362-1.345-0.553-2.068-0.553   c-1.479,0-2.856,0.788-3.595,2.057l-11.85,24.469c-0.121,0.25-0.341,0.438-0.605,0.52c-0.267,0.083-0.553,0.05-0.792-0.088   L28.75,29.41L26.536,33.219z"></path><path d="M48.243,10.885c-0.474,0-0.941-0.125-1.354-0.361c-0.63-0.361-1.08-0.945-1.268-1.645c-0.187-0.697-0.09-1.426,0.272-2.051   c0.724-1.243,2.456-1.709,3.706-0.988c0.629,0.36,1.079,0.944,1.267,1.644c0.188,0.698,0.091,1.427-0.273,2.053   C50.109,10.368,49.209,10.885,48.243,10.885z M48.245,7.478c-0.255,0-0.493,0.137-0.621,0.355c-0.093,0.16-0.118,0.348-0.07,0.527   c0.049,0.182,0.167,0.334,0.332,0.429c0.334,0.191,0.789,0.069,0.979-0.259c0.094-0.161,0.119-0.349,0.07-0.528   c-0.048-0.182-0.166-0.333-0.33-0.427C48.493,7.51,48.372,7.478,48.245,7.478z"></path><path d="M31.499,62c-0.169,0-0.34-0.043-0.496-0.133L10.07,49.862c-0.45-0.258-0.629-0.817-0.41-1.288   c0.23-0.497,5.756-12.211,15.139-15.918c0.512-0.204,1.094,0.049,1.297,0.563s-0.049,1.095-0.563,1.297   c-7.272,2.874-12.232,11.4-13.646,14.084l19.297,11.066c1.626-2.545,6.594-11.084,5.462-18.783   c-0.08-0.547,0.298-1.055,0.844-1.135c0.557-0.087,1.054,0.298,1.135,0.844c1.46,9.93-5.992,20.541-6.311,20.988   C32.121,61.853,31.813,62,31.499,62z"></path></g></svg>