<svg height='300px' width='300px'  fill="#000000" xmlns="http://www.w3.org/2000/svg" xmlns:xlink="http://www.w3.org/1999/xlink" version="1.1" x="0px" y="0px" viewBox="0 0 100 100" enable-background="new 0 0 100 100" xml:space="preserve"><path d="M22.197,42.913c-1.102-3.748-0.906-7.802,0.551-11.415c0.494-1.225-0.102-2.623-1.324-3.118  c-1.208-0.487-2.64,0.131-3.12,1.327c-1.86,4.608-2.11,9.778-0.705,14.556c0.736,2.514,1.91,4.862,3.49,6.98  c0.451,0.602,1.169,0.961,1.921,0.961c0.52,0,1.015-0.163,1.433-0.476c1.058-0.789,1.276-2.294,0.487-3.354  C23.694,46.719,22.775,44.882,22.197,42.913z"></path><path d="M92.361,79.746L72.079,59.462c-1.338-1.339-3.022-2.202-4.86-2.508c8.529-13.315,6.704-30.789-4.572-42.065  C56.27,8.512,47.788,5,38.769,5c-9.021,0-17.503,3.513-23.883,9.892C1.72,28.06,1.719,49.487,14.885,62.655  c6.38,6.378,14.86,9.89,23.879,9.89c6.508,0,12.763-1.831,18.183-5.309c0.304,1.826,1.166,3.512,2.505,4.847l20.288,20.29  c1.689,1.689,3.935,2.622,6.322,2.627h0.015c2.384,0,4.623-0.928,6.304-2.611c1.689-1.688,2.616-3.934,2.61-6.322  C94.986,83.68,94.053,81.436,92.361,79.746z M59.257,59.264c-5.474,5.473-12.751,8.488-20.493,8.488  c-7.739,0-15.016-3.016-20.489-8.486C6.976,47.966,6.977,29.58,18.278,18.281c5.47-5.473,12.748-8.488,20.491-8.488  c7.742,0,15.019,3.014,20.49,8.486c5.464,5.465,8.474,12.742,8.474,20.492S64.721,53.798,59.257,59.264z M88.991,89.002  c-0.775,0.775-1.812,1.204-2.925,1.204c-1.107-0.002-2.151-0.437-2.938-1.224L62.839,68.693c-0.786-0.785-1.221-1.829-1.224-2.939  c-0.002-1.105,0.427-2.143,1.207-2.923c0.777-0.776,1.814-1.207,2.919-1.207V60.79l0.006,0.834c1.11,0.003,2.155,0.438,2.94,1.226  l20.285,20.283c0.787,0.788,1.223,1.834,1.225,2.943C90.199,87.182,89.771,88.223,88.991,89.002z"></path></svg>