<svg height='300px' width='300px'  fill="#000000" xmlns="http://www.w3.org/2000/svg" xmlns:xlink="http://www.w3.org/1999/xlink" version="1.1" x="0px" y="0px" viewBox="0 0 91 91" enable-background="new 0 0 91 91" xml:space="preserve"><g><path d="M89.643,15.097c-0.017-0.894-0.584-1.682-1.427-1.98c-1.077-0.382-2.12-0.576-3.102-0.576   c-6.793,0-8.606,8.598-8.606,13.678v7.723c0,0.825,0.118,8.154,4.198,11.59c1.789,1.506,1.071,6.419,0.642,9.353   c-0.065,0.451-0.129,0.88-0.182,1.277c-0.11,0.846-1.55,15.379-1.793,17.854c-0.21,0.785-0.571,2.802,0.622,4.441   c0.591,0.813,1.759,1.78,3.971,1.78c0.153,0,0.315-0.004,0.354-0.01l1.202-0.004c2.422,0.13,3.692-0.88,4.349-1.728   c1.339-1.733,1.045-4.002,0.863-4.876L89.643,15.097z M80.795,33.941v-7.723c0-0.093,0.188-9.389,4.319-9.389   c0.09,0,0.179,0.003,0.271,0.011l0.563,30.229c-0.309-1.883-1.032-3.6-2.482-4.82C81.291,40.419,80.802,35.629,80.795,33.941z    M86.483,75.866c0,0.002-0.126,0.081-0.52,0.081l-0.315-0.008l-1.683,0.01c-0.267,0-0.424-0.033-0.48-0.033   c-0.008,0-0.015,0.002-0.019,0.004c-0.046-0.178-0.016-0.583,0.06-0.839c0.049-0.147,0.08-0.297,0.096-0.452   c0.678-6.861,1.717-17.295,1.795-17.907c0.052-0.378,0.11-0.785,0.175-1.218c0.158-1.084,0.337-2.317,0.447-3.599L86.45,73.92   c0.003,0.168,0.026,0.337,0.068,0.5C86.634,74.861,86.632,75.686,86.483,75.866z"></path><path d="M7.922,80.227l1.202-0.004c2.299,0.136,3.597-0.811,4.269-1.629c1.46-1.777,1.094-4.25,0.928-5.035   c-0.31-4.118-1.692-22.501-1.807-23.369c-0.393-2.965-1.125-8.485,0.782-10.96c2.724-3.541,3.279-9.846,3.334-10.553   c0.004-0.054,0.006-0.11,0.006-0.165V15.137c0-1.183-0.96-2.144-2.144-2.144s-2.144,0.961-2.144,2.144v13.29   c-0.137,1.635-0.819,6.065-2.453,8.187c-0.701,0.912-1.191,1.962-1.525,3.085c-0.332-1.123-0.822-2.175-1.523-3.085   c-1.626-2.111-2.313-6.549-2.453-8.188V15.137c0-1.183-0.96-2.144-2.144-2.144s-2.144,0.961-2.144,2.144v13.375   c0,0.054,0.002,0.11,0.006,0.165c0.054,0.707,0.61,7.012,3.334,10.553c1.906,2.475,1.174,7.995,0.78,10.962   C4.115,51.063,2.711,69.71,2.414,73.646c-0.083,0.628-0.31,3.2,1.311,5c0.67,0.742,1.876,1.592,3.792,1.592   C7.648,80.238,7.783,80.236,7.922,80.227z M6.663,74.226c0.011-0.062,0.019-0.124,0.023-0.186   c0.564-7.518,1.384-18.331,1.684-22.026c0.302,3.711,1.122,14.513,1.685,22.026c0.009,0.116,0.032,0.25,0.061,0.364   c0.136,0.566,0.096,1.309-0.031,1.462c-0.039,0.027-0.251,0.099-0.834,0.073l-1.454,0.002c-0.439,0.025-0.765-0.036-0.884-0.164   C6.659,75.502,6.597,74.676,6.663,74.226z"></path><path d="M6.227,15.137v14.099c0,1.184,0.96,2.144,2.144,2.144s2.144-0.96,2.144-2.144V15.137c0-1.183-0.96-2.144-2.144-2.144   S6.227,13.954,6.227,15.137z"></path><path d="M15.571,47.966c0,16.798,13.667,30.464,30.463,30.464c16.798,0,30.464-13.666,30.464-30.464   c0-16.796-13.666-30.462-30.464-30.462C29.238,17.504,15.571,31.169,15.571,47.966z M72.369,47.966   c0,14.521-11.813,26.336-26.335,26.336c-14.521,0-26.334-11.814-26.334-26.336c0-14.519,11.813-26.333,26.334-26.333   C60.557,21.633,72.369,33.447,72.369,47.966z"></path><path d="M26.334,47.966c0,10.865,8.836,19.701,19.7,19.701s19.699-8.836,19.699-19.701c0-10.861-8.836-19.699-19.699-19.699   S26.334,37.104,26.334,47.966z M61.446,47.966c0,8.5-6.913,15.414-15.412,15.414c-8.498,0-15.413-6.914-15.413-15.414   c0-8.498,6.915-15.411,15.413-15.411C54.533,32.555,61.446,39.468,61.446,47.966z"></path></g></svg>