<svg height='300px' width='300px'  fill="#000000" xmlns="http://www.w3.org/2000/svg" xmlns:xlink="http://www.w3.org/1999/xlink" version="1.1" x="0px" y="0px" viewBox="0 0 100 100" enable-background="new 0 0 100 100" xml:space="preserve"><path d="M84.871,15.533H67.174v-3.71C67.174,8.062,64.111,5,60.35,5h-20.7c-3.763,0-6.823,3.062-6.823,6.824v3.71H15.129  c-3.914,0-7.099,3.185-7.099,7.098v3.591c0,3.913,3.185,7.097,7.099,7.097h1.859l0.006,51.757C16.996,90.549,21.448,95,26.918,95  h46.169c5.474,0,9.925-4.452,9.925-9.924V33.319h1.859c3.914,0,7.1-3.184,7.1-7.097v-3.591  C91.971,18.718,88.785,15.533,84.871,15.533z M37.604,11.824c0-1.129,0.917-2.047,2.045-2.047H60.35  c1.129,0,2.047,0.918,2.047,2.047v3.71H37.604V11.824z M78.234,85.077c-0.002,2.837-2.31,5.146-5.147,5.146H26.918  c-2.838,0-5.146-2.309-5.146-5.146L21.767,33.32h56.467V85.077z M87.191,26.223c0,1.279-1.041,2.32-2.32,2.32H15.129  c-1.279,0-2.321-1.041-2.321-2.32v-3.591c0-1.279,1.042-2.32,2.321-2.32h69.742c1.279,0,2.32,1.041,2.32,2.32V26.223z"></path><path d="M65.313,83.697c1.317,0,2.389-1.072,2.389-2.389V42.218c-0.001-1.317-1.072-2.388-2.389-2.388  c-1.317,0-2.39,1.071-2.39,2.388v39.091C62.923,82.624,63.994,83.697,65.313,83.697z"></path><path d="M50,83.697c1.318,0,2.389-1.072,2.389-2.389V42.218c0-1.317-1.072-2.388-2.389-2.388c-1.317,0-2.389,1.071-2.389,2.388  v39.091C47.611,82.624,48.682,83.697,50,83.697z"></path><path d="M34.689,83.697c1.318,0,2.389-1.072,2.389-2.389V42.218c0-1.317-1.071-2.388-2.389-2.388c-1.317,0-2.389,1.071-2.389,2.388  v39.091C32.3,82.624,33.371,83.697,34.689,83.697z"></path></svg>