<svg height='300px' width='300px'  fill="#000000" xmlns="http://www.w3.org/2000/svg" xmlns:xlink="http://www.w3.org/1999/xlink" version="1.1" x="0px" y="0px" viewBox="0 0 91 91" enable-background="new 0 0 91 91" xml:space="preserve"><g><path d="M82.835,44.77c1.214-0.124,2.098-1.207,1.974-2.419C82.919,23.681,68.487,9.26,50.352,6.975l0.481-1.875   c0.275-1.084,0.035-2.251-0.644-3.122c-0.647-0.833-1.609-1.308-2.643-1.308h-4.449c-1.063,0-2.045,0.5-2.692,1.372   c-0.677,0.913-0.882,2.113-0.551,3.21l0.515,1.71C22.112,9.216,7.63,23.733,5.813,42.528c-0.117,1.214,0.771,2.293,1.985,2.413   c0.072,0.006,0.144,0.008,0.216,0.008c1.125,0,2.085-0.853,2.196-1.996c1.758-18.194,16.853-31.916,35.109-31.916   c18.173,0,33.259,13.652,35.095,31.756C80.538,44.008,81.624,44.889,82.835,44.77z M44.418,5.085h1.857l-0.399,1.562   c-0.187-0.002-0.369-0.026-0.557-0.026c-0.147,0-0.288,0.018-0.434,0.02L44.418,5.085z"></path><path d="M88.518,47.33h-3.985H6.106H2.691c-1.218,0-2.208,0.99-2.208,2.209s0.99,2.209,2.208,2.209h1.532   c0.98,3.649,4.286,6.357,8.243,6.357h8.413c2.749,3.349,10.932,13.265,10.932,13.265c0.056,0.065,0.115,0.129,0.179,0.191   l12.976,12.38l1.307,1.135l-1.77,1.229c-1,0.697-1.249,2.076-0.552,3.074c0.43,0.619,1.118,0.951,1.814,0.951   c0.438,0,0.877-0.13,1.261-0.397l17.066-11.938l6.08,5.71c0.427,0.402,0.971,0.6,1.514,0.6c0.587,0,1.175-0.233,1.609-0.695   c0.835-0.891,0.791-2.289-0.096-3.122l-7.584-7.126c-0.693-0.649-1.686-0.741-2.494-0.336c-0.324-1.055-0.364-2.175-0.078-3.264   c0.461-1.748,1.342-3.384,2.545-4.726l5.043-5.614c0.331-0.367,0.521-0.833,0.556-1.316h6.99c3.955,0,7.259-2.708,8.239-6.357   h2.102c1.221,0,2.209-0.99,2.209-2.209S89.738,47.33,88.518,47.33z M62.302,62.086c-1.67,1.861-2.893,4.124-3.531,6.551   c-0.642,2.445-0.38,4.99,0.73,7.239l-9.487,6.6l-2.073-1.798L35.135,68.455c-0.676-0.816-5.295-6.417-8.533-10.35h3.3   c0,0,7.472,6.379,7.528,6.419c2.495,1.76,8.221,3.326,10.98,3.326c3.908,0,7.684-1.648,10.36-4.521   c0.896-0.961,1.722-1.812,2.364-2.467c1.083-1.105,2.27-1.91,3.525-2.396c0.478-0.182,0.871-0.284,1.187-0.332L62.302,62.086z    M55.543,60.315c-1.846,1.982-4.446,3.118-7.133,3.118c-2.104,0-6.721-1.37-8.362-2.469l-3.346-2.859h20.949   C57.045,58.731,56.333,59.468,55.543,60.315z M78.177,53.689H66.278c-0.032,0-0.065,0-0.1,0H12.466   c-1.476,0-2.776-0.776-3.511-1.941h72.729C80.949,52.913,79.653,53.689,78.177,53.689z"></path><path d="M71.523,37.047c1.165-0.361,1.815-1.6,1.452-2.764c-4.118-13.223-15.787-17.036-16.282-17.194   c-1.157-0.359-2.396,0.278-2.765,1.438c-0.369,1.158,0.271,2.401,1.43,2.774c0.406,0.132,9.987,3.338,13.398,14.293   c0.296,0.947,1.167,1.554,2.109,1.554C71.084,37.149,71.306,37.115,71.523,37.047z"></path></g></svg>