<svg width="300" height="303" viewBox="0 0 300 303" fill="none" xmlns="http://www.w3.org/2000/svg"><path d="M286.311 148.682c-21.561-36.418-58.201-62.789-95.635-68.859-34.264-5.52-68.264 5.332-98.341 31.456-3.186 2.768-3.523 7.591-.762 10.781 2.773 3.174 7.593 3.523 10.786.762 26.526-23.052 56.213-32.702 85.868-27.905 33.083 5.352 65.629 28.935 84.94 61.548 11.062 18.692 13.988 35.244 8.686 49.203-7.976 21.019-32.45 31.021-37.733 32.97h-92.955c-17.945-3.195-30.816-10.796-38.269-22.592-5.26-8.313-7.246-17.756-7.736-26.209 0-.07-.02-.148-.02-.212-.508-9.19.752-17.181 1.581-21.222 42.458-23.867 88.996 12.781 89.476 13.158 3.276 2.629 8.086 2.131 10.729-1.154 2.656-3.284 2.151-8.098-1.132-10.74-2.161-1.741-49.973-39.601-98.904-18.373-6.329-3.328-19.95-10.592-25.2-14.127-1.733-1.174-12.08-7.044-13.737-9.13-.67-.842-.83-1.189-.815-1.464-.127-1.349-.332-3.603-1.782-6.784-6.374-14.147-19.224-18.767-28.31-18.272-8.605.39-15.369 4.717-17.64 11.288a14.427 14.427 0 0 0-.782 4.773c-5.277.457-10.702 3.103-13.915 11.489-2.496 6.542-1.734 15.869 1.946 23.764 3.128 6.719 7.966 11.492 13.608 13.448 7.106 2.461 13.383.202 18.428-1.594 2.443-.882 5.16-1.847 6.57-1.602 8.226 1.594 34.098 19.965 44.777 29.934.85 9.97 3.528 21.002 9.88 31.086 2.788 4.451 6.181 8.393 10.022 11.911-16.4-1.091-31.001-8.013-40.764-15.749-11.634-9.237-18.388-20.586-18.085-30.366.132-4.215-3.186-7.743-7.406-7.876-4.075.09-7.736 3.186-7.876 7.401-.457 14.805 8.244 30.404 23.866 42.808 15.701 12.47 35.488 19.197 54.863 19.197 6.042 0 12.041-.695 17.871-2.041 5.167 1.896 10.749 3.398 16.799 4.435.429.07 97.759-.013 98.501-.248 1.501-.482 36.77-11.951 48.387-42.369 7.083-18.563 3.79-39.59-9.785-62.524Zm-252.767 1.604c-3.373 1.215-6.294 2.237-8.283 1.552-1.652-.572-3.436-2.619-4.76-5.462-2.087-4.465-2.411-9.545-1.524-11.859.487-1.262.87-1.744.854-1.794.945-.172 9.25 1.657 11.03 1.954 3.327.565 6.72-1.182 8.185-4.29a7.638 7.638 0 0 0-1.937-9.035c-2.074-1.784-2.816-3.019-3.073-3.593.772-.525 2.776-1.295 5.782-.9 2.376.29 8.263 1.782 11.611 9.215.387.855.41 1.105.49 1.902.242 2.638.732 5.352 4.065 9.559 3.528 4.421 8.336 7.144 12.583 9.556 1.585.899 17.346 10.319 24.247 14.022-.027.1-.11.173-.14.273-.142.502-1.409 5.132-2.236 12.035-13.105-10.389-31.963-23.352-42.277-25.354-5.443-1.042-10.328.692-14.618 2.219ZM7.836 264.326c-4.215 0-7.64 3.428-7.64 7.643a7.645 7.645 0 0 0 7.64 7.641h35.253c.098.128.118.278.22.4l16.461 19.435a7.62 7.62 0 0 0 5.83 2.703h168.038c2.046 0 4-.814 5.44-2.273l19.164-19.43c.25-.25.348-.562.553-.832h28.312c4.218 0 7.634-3.423 7.634-7.641 0-4.215-3.416-7.643-7.634-7.643l-279.271-.003Zm222.601 22.543H69.134l-6.149-7.263H237.6l-7.162 7.263ZM131.623 19.414a7.628 7.628 0 0 0 3.048-10.36c-2.031-3.71-6.674-5.077-10.362-3.048-18.997 10.37-10.259 27.438-5.559 36.615 6.374 12.463 7.061 15.84-.9 20.392a7.641 7.641 0 0 0-2.838 10.43 7.645 7.645 0 0 0 6.639 3.838 7.649 7.649 0 0 0 3.79-1.005c21.418-12.271 11.981-30.714 6.912-40.618-6.414-12.526-5.525-13.62-.73-16.244ZM175.919 22.1a7.644 7.644 0 0 0-10.689-1.624c-10.03 7.396-4.698 18.915-1.17 26.536 3.858 8.308 4.428 10.941 2.689 12.253-3.373 2.534-4.048 7.331-1.514 10.7a7.642 7.642 0 0 0 6.114 3.043c1.594 0 3.213-.5 4.587-1.53 12.087-9.104 5.765-22.742 1.997-30.89-1.132-2.437-2.959-6.372-3.178-8.173a7.647 7.647 0 0 0 1.164-10.315ZM209.763 14.942c4.036-1.234 6.302-5.512 5.058-9.537-1.235-4.035-5.498-6.314-9.545-5.06-6.312 1.942-9.251 5.8-10.61 8.693-3.885 8.329.238 18.15 3.886 26.803 1.244 2.966 3.123 7.434 3.175 8.663a7.637 7.637 0 0 0 6.472 8.648c.372.058.742.083 1.094.083a7.647 7.647 0 0 0 7.556-6.554c.729-5.018-1.559-10.46-4.215-16.761-1.55-3.68-5.178-12.303-4.151-14.375.008-.005.29-.295 1.28-.602Z" fill="#000"/></svg>